<svg width="123" height="65" viewBox="0 0 123 65" fill="none" xmlns="http://www.w3.org/2000/svg">
<path d="M117.913 4.58152L115.534 9.29451L115.226 8.7219C114.697 7.79692 113.552 6.12315 112.935 5.37436C111.218 3.26012 108.971 1.76254 106.637 1.18993C105.712 0.969701 103.862 0.969701 103.069 1.18993C101.395 1.6304 99.8536 2.64347 98.3561 4.09701C96.5942 5.85887 95.1847 8.19334 93.9954 11.2766C92.674 14.6241 91.9693 17.9276 91.7491 22.2442C91.4848 26.9131 92.1455 31.4499 93.6431 35.4141C93.9954 36.3832 94.524 37.5724 94.5681 37.5284C94.5681 37.5284 94.524 37.2641 94.48 36.9558C94.1276 35.1058 93.9954 31.4059 94.1276 28.7631C94.3038 25.9882 94.8323 23.4335 95.8895 20.174C96.9466 16.8705 98.2239 14.7122 100.25 12.598C102.32 10.4838 104.126 9.55879 106.593 9.42665C108.355 9.33856 109.632 9.77902 111.614 11.0564C113.464 12.2897 115.138 14.1837 116.503 16.6503C116.723 17.0027 116.9 17.311 116.944 17.2669C117.076 17.1348 121.613 8.32548 121.657 8.19334C121.701 8.0612 120.423 0.264956 120.335 0.000676019C120.335 -0.0433706 119.234 2.07087 117.913 4.62557H117.869V4.58152H117.913ZM0.0440466 0.441142C0.0440466 0.529235 4.36061 15.0646 9.60216 32.7713L19.1162 64.9254H19.9531L25.8994 44.9282C29.1589 33.9606 31.8897 24.9311 31.8897 24.9311C31.8897 24.9311 34.6206 33.9166 37.8801 44.9282L43.8264 64.9254H44.6633L52.9 37.2201C61.0045 9.86711 61.1367 9.51474 61.4891 8.85404L61.8855 8.19334H75.4518L75.1875 8.58976C75.0554 8.81 72.5007 13.1706 69.5936 18.236L64.2199 27.4858V31.3178H66.3342C68.5806 31.3178 69.5055 31.3619 70.6067 31.6261C74.7471 32.463 77.478 35.1939 78.447 39.6426C79.0196 42.1092 79.0637 45.0603 78.6232 47.6151C77.9625 51.5792 75.9363 55.0149 73.5578 56.2482C72.5888 56.7767 72.1043 56.8648 70.7388 56.8648C69.6817 56.8648 69.4615 56.8208 68.8448 56.6886C67.2151 56.2482 66.1139 55.6315 64.8806 54.3101C63.6033 53.0328 62.7224 51.7114 61.9295 49.8614C61.7093 49.3769 61.5331 49.0686 61.4891 49.1126C61.401 49.1567 56.2035 51.315 55.3666 51.6673L55.0142 51.7995L55.3225 52.5923C57.0844 57.5255 60.2998 61.4457 64.2199 63.4278C66.0699 64.3528 67.7877 64.8373 69.946 64.9694C73.734 65.1896 77.1696 64.2206 79.9446 62.0623C80.7374 61.4897 82.1469 60.1243 82.8076 59.2874C85.4064 56.116 86.9039 52.4602 87.5206 47.9234C87.7408 46.3817 87.7849 43.1223 87.6087 41.4926C86.948 34.7975 84.129 29.5559 79.4601 26.5608C78.5351 25.9882 77.1256 25.2394 76.0685 24.843C75.628 24.6668 75.1875 24.4906 75.1875 24.4906C75.1435 24.4465 77.7863 19.8657 81.0457 14.3158L86.948 4.1851V0.309002H55.4987L49.7286 19.9538C46.5573 30.7452 43.9585 39.5986 43.9145 39.5986C43.8704 39.5986 41.4038 31.2738 38.4527 21.143C35.5016 10.9683 32.9028 2.11491 32.7266 1.45421L32.3743 0.264956H28.1898C24.2256 0.264956 24.0054 0.264956 24.0494 0.397095C24.0935 0.485189 24.9304 3.39226 25.9875 6.8279L27.8375 13.1266L23.9614 26.3846C21.8031 33.6523 20.0853 39.5986 20.0412 39.5986C19.9972 39.5986 17.3984 30.7892 14.2271 19.9538L8.32481 0.264956H0L0.0440466 0.441142ZM88.7979 45.677C88.7979 45.8091 89.9872 49.2007 90.2955 49.9936C90.692 51.0947 91.7931 53.2971 92.4979 54.4423C93.6871 56.5125 95.2288 58.4946 96.7263 60.0362C99.281 62.5909 101.748 63.9563 104.875 64.4849C105.58 64.617 108.178 64.617 108.883 64.4849C111.041 64.0885 112.891 63.2956 114.565 62.1064C117.428 59.9921 119.895 57.1732 121.745 53.7816L122.185 52.9887L121.569 49.9055C121.216 48.1436 120.952 46.7782 120.908 46.7341C120.908 46.7341 120.6 47.2186 120.203 47.8353C119.322 49.3329 118.309 50.7864 117.693 51.5792C117.428 51.9316 116.679 52.7245 116.019 53.3852C114.169 55.2351 112.759 56.2922 111.041 57.0851C108.487 58.3184 106.637 58.7148 104.258 58.5386C102.585 58.4065 101.616 58.2303 100.206 57.6136C98.0918 56.7767 96.5501 55.6756 94.4359 53.6494C92.5419 51.7995 91.7491 50.7424 89.6348 46.9984C88.798 45.5889 88.7539 45.5008 88.7539 45.5889L88.7979 45.677Z" fill="#444444"/>
</svg>
