<?xml version="1.0" encoding="UTF-8" standalone="no"?>
<!DOCTYPE svg PUBLIC "-//W3C//DTD SVG 1.1//EN" "http://www.w3.org/Graphics/SVG/1.1/DTD/svg11.dtd">
<svg width="100%" height="100%" viewBox="0 0 78 70" version="1.1" xmlns="http://www.w3.org/2000/svg" xmlns:xlink="http://www.w3.org/1999/xlink" xml:space="preserve" xmlns:serif="http://www.serif.com/" style="fill-rule:evenodd;clip-rule:evenodd;stroke-linejoin:round;stroke-miterlimit:2;">
    <g id="Artboard1" transform="matrix(0.951659,0,0,0.9343,-0.0837845,0.0628641)">
        <rect x="0.088" y="-0.067" width="80.934" height="74.922" style="fill:none;"/>
        <clipPath id="_clip1">
            <rect x="0.088" y="-0.067" width="80.934" height="74.922"/>
        </clipPath>
        <g clip-path="url(#_clip1)">
            <g transform="matrix(0.0323322,0,0,0.0329329,0.114955,-0.175337)">
                <path d="M975.661,0L1369.32,0L1402.25,57.347L1515.09,57.347L2499.6,1762.95L2287.61,2124.42L1425.92,2124.42L1513.24,2275L1475.13,2275L1387.82,2124.42L318.208,2124.42L263.451,2028.22L195.745,2028.22L0.026,1689.32L0.396,1689.32L251.242,1254.23L483.589,1120.3L867.997,454.704L790.671,320.772L975.661,0ZM1207.64,588.636L527.616,1763.32L1178.41,1763.32L1103.3,1633.46L1812.55,1634.2L1207.64,588.636Z" style="fill:rgb(68,68,68);fill-rule:nonzero;"/>
            </g>
        </g>
    </g>
</svg>
