<?xml version="1.0" encoding="UTF-8" standalone="no"?>
<!DOCTYPE svg PUBLIC "-//W3C//DTD SVG 1.1//EN" "http://www.w3.org/Graphics/SVG/1.1/DTD/svg11.dtd">
<svg width="100%" height="100%" viewBox="0 0 70 70" version="1.1" xmlns="http://www.w3.org/2000/svg" xmlns:xlink="http://www.w3.org/1999/xlink" xml:space="preserve" xmlns:serif="http://www.serif.com/" style="fill-rule:evenodd;clip-rule:evenodd;stroke-linejoin:round;stroke-miterlimit:2;">
    <g id="Artboard1" transform="matrix(0.8649,0,0,0.9343,-0.0761461,0.0628641)">
        <rect x="0.088" y="-0.067" width="80.934" height="74.922" style="fill:none;"/>
        <clipPath id="_clip1">
            <rect x="0.088" y="-0.067" width="80.934" height="74.922"/>
        </clipPath>
        <g clip-path="url(#_clip1)">
            <g transform="matrix(5.3944,0,0,5.74607,-59.7311,-14.4981)">
                <path d="M26.093,4.467L26.093,13.594C26.093,14.674 25.084,15.55 23.842,15.55L13.34,15.55C12.098,15.55 11.089,14.674 11.089,13.594L11.089,4.467C11.089,3.388 12.098,2.511 13.34,2.511L23.842,2.511C25.084,2.511 26.093,3.388 26.093,4.467ZM14.017,5.327C13.824,5.328 13.666,5.466 13.667,5.633L13.667,6.829C13.668,6.996 13.825,7.132 14.017,7.133L15.394,7.133L15.396,7.133C15.588,7.133 15.746,6.996 15.746,6.829L15.746,6.535L17.546,6.535L17.546,6.623C15.334,7.041 13.677,8.747 13.677,10.794L13.677,10.929L13.328,10.929C13.136,10.929 12.978,11.067 12.979,11.234L12.979,12.431C12.979,12.597 13.137,12.734 13.328,12.734L14.706,12.734C14.898,12.735 15.057,12.598 15.058,12.431L15.058,11.234L15.058,11.233C15.058,11.066 14.9,10.929 14.707,10.929L14.379,10.929L14.379,10.794C14.379,8.76 16.255,7.133 18.597,7.133C20.939,7.133 22.812,8.76 22.812,10.794L22.812,10.929L22.473,10.929C22.281,10.929 22.123,11.067 22.124,11.234L22.124,12.431C22.125,12.597 22.282,12.734 22.473,12.734L23.851,12.734C24.043,12.735 24.202,12.598 24.203,12.431L24.203,11.234L24.203,11.233C24.203,11.066 24.045,10.929 23.852,10.929L23.514,10.929L23.514,10.794C23.514,8.739 21.847,7.027 19.623,6.618L19.623,6.535L21.422,6.535L21.422,6.829C21.423,6.996 21.581,7.133 21.773,7.133L21.774,7.133L23.151,7.133C23.343,7.133 23.501,6.996 23.501,6.829L23.501,5.633L23.501,5.632C23.501,5.465 23.344,5.328 23.151,5.327L21.774,5.327L21.773,5.327C21.581,5.327 21.422,5.465 21.422,5.632L21.422,5.925L19.623,5.925L19.623,5.633C19.623,5.466 19.466,5.328 19.273,5.327L17.895,5.327C17.703,5.328 17.545,5.466 17.546,5.633L17.546,5.925L15.746,5.925L15.746,5.632C15.746,5.465 15.588,5.327 15.396,5.327L15.394,5.327L14.017,5.327Z" style="fill:rgb(68,68,68);"/>
            </g>
        </g>
    </g>
</svg>
