<svg width="50" height="70" viewBox="0 0 50 70" fill="none" xmlns="http://www.w3.org/2000/svg">
<path d="M43.1075 24.0447C46.6607 21.7114 49.0201 17.6707 49.0201 13.0894C49.0201 5.86179 43.136 0 35.9443 0H13.4882C6.26813 0 0.412476 5.89024 0.412476 13.0894C0.412476 17.6707 2.77179 21.7114 6.32498 24.0447C2.77179 26.378 0.412476 30.4187 0.412476 35C0.412476 39.5813 2.77179 43.622 6.32498 45.9553C2.77179 48.2886 0.412476 52.3293 0.412476 56.9106C0.412476 64.1382 6.32498 70 13.5735 70C20.9072 70 26.8766 64.0528 26.8766 56.7683V44.6748C29.2075 46.7805 32.3059 48.0894 35.6885 48.0894H35.9728C43.1928 48.0894 49.0485 42.1992 49.0485 35C49.0201 30.4187 46.6607 26.378 43.1075 24.0447ZM22.5844 56.7683C22.5844 61.6911 18.5479 65.7317 13.5735 65.7317C8.68429 65.7317 4.70472 61.7764 4.70472 56.9106C4.70472 52.0447 8.65587 48.1179 13.4882 48.0894H22.5844V56.7683ZM22.5844 43.8211H13.4882C8.62744 43.8211 4.70472 39.8659 4.70472 35C4.70472 30.1341 8.65586 26.1789 13.5166 26.1789H22.6128V43.8211H22.5844ZM22.5844 21.9106H13.4882C8.62744 21.9106 4.6763 17.9553 4.6763 13.0894C4.6763 8.22358 8.62744 4.26829 13.4882 4.26829H22.5844V21.9106ZM26.8482 4.26829H35.9443C40.8051 4.26829 44.7562 8.22358 44.7562 13.0894C44.7562 17.9553 40.8051 21.9106 35.9443 21.9106H26.8482V4.26829ZM35.9443 43.8211H35.6601C30.7993 43.8211 26.8482 39.8659 26.8482 35C26.8482 30.1341 30.7993 26.1789 35.6601 26.1789H35.9443C40.8051 26.1789 44.7562 30.1341 44.7562 35C44.7562 39.8659 40.8051 43.8211 35.9443 43.8211Z" fill="#444444"/>
</svg>
