<svg width="51" height="70" viewBox="0 0 51 70" fill="none" xmlns="http://www.w3.org/2000/svg">
<path d="M1.67493 45.7159L8.57397 1.33862C8.62486 1.01033 8.77789 0.706422 9.01132 0.470045C9.24475 0.233668 9.54671 0.0768388 9.87433 0.0218265C10.202 -0.0331858 10.5386 0.0164151 10.8364 0.163586C11.1342 0.310757 11.3781 0.548017 11.5335 0.841676L18.9516 14.7657L1.67493 45.7159ZM50.6631 56.477L44.0963 15.6599C44.0492 15.3728 43.9238 15.1043 43.7338 14.884C43.5438 14.6637 43.2966 14.5001 43.0196 14.4114C42.7425 14.3226 42.4464 14.3121 42.1637 14.3809C41.8811 14.4498 41.6229 14.5954 41.4178 14.8017L0 56.477L22.9174 69.3947C23.6243 69.7915 24.4213 70 25.2319 70C26.0425 70 26.8395 69.7915 27.5463 69.3947L50.6631 56.477ZM32.0396 20.8481L26.7324 10.6919C26.5993 10.4353 26.3983 10.2201 26.1512 10.07C25.9042 9.9198 25.6206 9.84038 25.3315 9.84038C25.0424 9.84038 24.7589 9.9198 24.5119 10.07C24.2648 10.2201 24.0638 10.4353 23.9307 10.6919L0.627059 52.4571L32.0396 20.8481Z" fill="#444444"/>
</svg>
