<svg width="70" height="70" viewBox="0 0 70 70" fill="none" xmlns="http://www.w3.org/2000/svg">
<path d="M68.6832 31.8812L38.1188 1.31683C37.2409 0.438942 36.1782 0 34.9307 0C33.6832 0 32.6205 0.438942 31.7426 1.31683L25.3663 7.69307L33.4753 15.7327C34.3993 15.4092 35.3581 15.3515 36.3515 15.5594C37.3449 15.7673 38.2112 16.2409 38.9505 16.9802C39.6898 17.7657 40.1634 18.6551 40.3713 19.6485C40.5792 20.6419 40.5215 21.6007 40.198 22.5247L47.9604 30.2871C48.9307 29.9637 49.9125 29.9059 50.9059 30.1139C51.8993 30.3218 52.7657 30.8185 53.505 31.604C54.5677 32.6205 55.099 33.868 55.099 35.3465C55.099 36.8251 54.5677 38.0957 53.505 39.1584C52.4884 40.2211 51.2409 40.7525 49.7624 40.7525C48.2838 40.7525 47.0132 40.2211 45.9505 39.1584C45.165 38.3729 44.6683 37.4488 44.4604 36.3861C44.2525 35.3234 44.3564 34.3069 44.7723 33.3366L37.5644 26.0594V45.1188C37.7954 45.2574 38.0264 45.4076 38.2574 45.5693C38.4884 45.731 38.7195 45.9274 38.9505 46.1584C40.0132 47.1749 40.5446 48.434 40.5446 49.9356C40.5446 51.4373 40.0132 52.6964 38.9505 53.7129C37.8878 54.7756 36.6172 55.3069 35.1386 55.3069C33.6601 55.3069 32.4125 54.7756 31.396 53.7129C30.3333 52.6964 29.7673 51.4373 29.698 49.9356C29.6287 48.434 30.1254 47.1749 31.1881 46.1584C31.4653 45.8812 31.731 45.6502 31.9851 45.4653C32.2393 45.2805 32.505 45.1188 32.7822 44.9802V25.7822C32.505 25.6436 32.2393 25.4703 31.9851 25.2624C31.731 25.0545 31.4653 24.835 31.1881 24.604C30.4026 23.8185 29.929 22.8828 29.7673 21.797C29.6056 20.7112 29.7327 19.6832 30.1485 18.7129L22.2475 10.8119L1.31683 31.7426C0.438944 32.6205 0 33.6832 0 34.9307C0 36.1782 0.438944 37.2409 1.31683 38.1188L31.8812 68.6832C32.7591 69.5611 33.8218 70 35.0693 70C36.3168 70 37.3795 69.5611 38.2574 68.6832L68.6832 38.2574C69.5611 37.3795 70 36.3168 70 35.0693C70 33.8218 69.5611 32.7591 68.6832 31.8812Z" fill="#444444"/>
</svg>
