<svg width="73" height="70" viewBox="0 0 73 70" fill="none" xmlns="http://www.w3.org/2000/svg">
<path d="M36.5976 0C31.6451 0 26.9897 0.940979 22.6315 2.82294C18.2733 4.7049 14.4722 7.26783 11.2283 10.5117C7.98442 13.7556 5.42148 17.5567 3.53952 21.9149C1.65756 26.2732 0.716583 30.9285 0.716583 35.8811C0.716583 39.8431 1.32327 43.6194 2.53664 47.21C3.75001 50.8005 5.44625 54.0816 7.62536 57.0531C9.80447 60.0246 12.3922 62.6123 15.3884 64.8162C18.3847 67.0201 21.6658 68.7163 25.2316 69.9049C26.123 70.103 26.7545 69.9916 27.1259 69.5706C27.4974 69.1497 27.6831 68.6915 27.6831 68.1963C27.6831 67.7506 27.6831 66.8963 27.6831 65.6334C27.6831 64.3705 27.6831 62.9961 27.6831 61.5104C22.681 62.5999 19.4124 62.1666 17.8771 60.2103C16.3418 58.2541 15.5742 57.276 15.5742 57.276C14.7322 55.1959 13.8532 53.7968 12.9369 53.0787C12.0207 52.3606 11.5626 52.0015 11.5626 52.0015C9.92828 50.912 9.56922 50.2805 10.4854 50.1072C11.4017 49.9338 11.8598 49.8472 11.8598 49.8472C13.6427 49.9958 15.0046 50.652 15.9456 51.8158C16.8866 52.9797 17.3571 53.5616 17.3571 53.5616C18.9419 56.2855 20.8115 57.5731 22.9658 57.4245C25.1202 57.276 26.7173 56.9788 27.7574 56.5331C27.906 55.394 28.1907 54.4283 28.6117 53.6359C29.0327 52.8435 29.5155 52.1996 30.0603 51.7044C28.0793 51.5063 26.1107 51.1101 24.1544 50.5158C22.1982 49.9215 20.44 48.9805 18.88 47.6928C17.3199 46.4052 16.0694 44.6594 15.1284 42.4555C14.1875 40.2517 13.717 37.4411 13.717 34.0239C13.717 32.0428 14.0389 30.2476 14.6827 28.638C15.3265 27.0284 16.2428 25.6046 17.4314 24.3664C17.2333 23.9207 16.998 22.8435 16.7256 21.1349C16.4532 19.4263 16.7875 17.3338 17.7285 14.8576C17.7285 14.8576 18.5209 14.8947 20.1057 14.969C21.6905 15.0433 24.1916 16.2443 27.6088 18.572C29.045 18.1758 30.5184 17.8786 32.0289 17.6805C33.5395 17.4824 35.0624 17.3586 36.5976 17.3091C38.1329 17.3586 39.6558 17.4824 41.1663 17.6805C42.6769 17.8786 44.1502 18.1758 45.5865 18.572C49.0037 16.2443 51.5047 15.0433 53.0896 14.969C54.6744 14.8947 55.4668 14.8576 55.4668 14.8576C56.4077 17.3338 56.742 19.4263 56.4697 21.1349C56.1973 22.8435 55.962 23.9207 55.7639 24.3664C56.9525 25.6046 57.8687 27.0284 58.5126 28.638C59.1564 30.2476 59.4783 32.0428 59.4783 34.0239C59.4783 37.4411 59.0078 40.2517 58.0668 42.4555C57.1259 44.6594 55.8754 46.4052 54.3153 47.6928C52.7553 48.9805 50.9971 49.9215 49.0409 50.5158C47.0846 51.1101 45.116 51.5063 43.135 51.7044C43.7788 52.2492 44.336 53.0787 44.8064 54.193C45.2769 55.3073 45.5122 56.7064 45.5122 58.3903C45.5122 60.7675 45.5122 62.8476 45.5122 64.6305C45.5122 66.4134 45.5122 67.602 45.5122 68.1963C45.5122 68.6915 45.6979 69.1497 46.0693 69.5706C46.4408 69.9916 47.0722 70.103 47.9637 69.9049C51.5295 68.7163 54.8106 67.0201 57.8068 64.8162C60.8031 62.6123 63.3908 60.0246 65.5699 57.0531C67.749 54.0816 69.4453 50.8005 70.6586 47.21C71.872 43.6194 72.4787 39.8431 72.4787 35.8811C72.4787 30.9285 71.5377 26.2732 69.6558 21.9149C67.7738 17.5567 65.2109 13.7556 61.967 10.5117C58.7231 7.26783 54.922 4.7049 50.5638 2.82294C46.2055 0.940979 41.5502 0 36.5976 0ZM14.3113 51.4815C14.2617 51.5806 14.1751 51.6425 14.0513 51.6672C13.9274 51.692 13.816 51.6796 13.717 51.6301C13.5684 51.5806 13.457 51.4939 13.3827 51.3701C13.3084 51.2463 13.296 51.1596 13.3455 51.1101C13.3951 51.011 13.4817 50.9491 13.6055 50.9244C13.7293 50.8996 13.8655 50.912 14.0141 50.9615C14.1132 51.011 14.1998 51.0977 14.2741 51.2215C14.3484 51.3453 14.3608 51.432 14.3113 51.4815ZM15.7227 53.1158C15.6732 53.2149 15.5742 53.252 15.4256 53.2273C15.277 53.2025 15.1532 53.1158 15.0541 52.9673C14.9056 52.8682 14.8189 52.7444 14.7941 52.5958C14.7694 52.4473 14.8065 52.3234 14.9056 52.2244C15.0046 52.1253 15.1284 52.1006 15.277 52.1501C15.4256 52.1996 15.5494 52.2739 15.6485 52.373C15.7475 52.5215 15.8094 52.6701 15.8342 52.8187C15.8589 52.9673 15.8218 53.0663 15.7227 53.1158ZM17.1342 55.1959C17.0352 55.295 16.9113 55.3073 16.7628 55.2331C16.6142 55.1588 16.4904 55.0473 16.3913 54.8988C16.2428 54.7502 16.1685 54.5892 16.1685 54.4159C16.1685 54.2425 16.2428 54.1064 16.3913 54.0073C16.4904 53.9578 16.6142 53.9578 16.7628 54.0073C16.9113 54.0568 17.0599 54.1559 17.2085 54.3045C17.3075 54.5026 17.3571 54.6883 17.3571 54.8616C17.3571 55.035 17.2828 55.1464 17.1342 55.1959ZM19.14 57.2017C19.0409 57.3007 18.8924 57.3379 18.6943 57.3131C18.4962 57.2883 18.3228 57.2017 18.1742 57.0531C18.0257 56.9045 17.9266 56.7436 17.8771 56.5702C17.8276 56.3969 17.8523 56.2607 17.9514 56.1617C18.0504 56.0626 18.199 56.0255 18.3971 56.0502C18.5952 56.075 18.7685 56.1617 18.9171 56.3102C19.0657 56.4588 19.1647 56.6198 19.2143 56.7931C19.2638 56.9664 19.239 57.1026 19.14 57.2017ZM21.8143 58.3903C21.7648 58.4893 21.6534 58.576 21.4801 58.6503C21.3067 58.7246 21.121 58.7122 20.9229 58.6132C20.6753 58.5636 20.5019 58.4646 20.4029 58.316C20.3038 58.1674 20.2791 58.0436 20.3286 57.9446C20.3286 57.796 20.4276 57.6846 20.6257 57.6103C20.8238 57.536 21.0219 57.5484 21.22 57.6474C21.4181 57.6969 21.5667 57.796 21.6658 57.9446C21.7648 58.0931 21.8143 58.2417 21.8143 58.3903ZM24.7116 58.5389C24.7116 58.6874 24.6373 58.8236 24.4887 58.9474C24.3401 59.0713 24.1668 59.1332 23.9687 59.1332C23.7706 59.1332 23.5849 59.0836 23.4115 58.9846C23.2382 58.8855 23.1515 58.7617 23.1515 58.6132C23.1515 58.4646 23.2258 58.3408 23.3744 58.2417C23.523 58.1427 23.7211 58.0684 23.9687 58.0188C24.1668 58.0188 24.3401 58.0808 24.4887 58.2046C24.6373 58.3284 24.7116 58.4398 24.7116 58.5389ZM27.4602 58.0931C27.4602 58.2417 27.3983 58.3779 27.2745 58.5017C27.1507 58.6255 26.9897 58.7122 26.7916 58.7617C26.5935 58.8113 26.4078 58.7989 26.2345 58.7246C26.0611 58.6503 25.9497 58.5389 25.9002 58.3903C25.9002 58.2417 25.9621 58.1055 26.0859 57.9817C26.2097 57.8579 26.3707 57.7712 26.5688 57.7217C26.8164 57.6722 27.0145 57.6846 27.1631 57.7588C27.3117 57.8331 27.4107 57.9446 27.4602 58.0931Z" fill="#444444"/>
</svg>
