<svg width="70" height="70" viewBox="0 0 70 70" fill="none" xmlns="http://www.w3.org/2000/svg">
<path fill-rule="evenodd" clip-rule="evenodd" d="M0 0H70V70H0V0ZM64.2709 53.3053C63.7585 50.1113 61.6759 47.4298 55.5075 44.9277C53.3649 43.9429 50.9762 43.2376 50.2642 41.6142C50.0114 40.6692 49.978 40.1369 50.1379 39.5646C50.5968 37.7082 52.8128 37.1294 54.5695 37.6617C55.7007 38.0408 56.772 38.9127 57.4174 40.3032C60.4383 38.3471 60.4316 38.3603 62.5408 37.0163C61.7691 35.8184 61.3564 35.2663 60.8507 34.7539C59.0344 32.7244 56.5589 31.6798 52.6 31.7596C51.9145 31.8461 51.2226 31.939 50.5369 32.0258C48.561 32.5248 46.6777 33.5628 45.5731 34.9535C42.2596 38.7131 43.2043 45.2936 47.2368 48.0021C51.2092 50.983 57.0447 51.6617 57.79 54.4496C58.5152 57.8631 55.2815 58.9677 52.0674 58.5752C49.6986 58.0829 48.3812 56.8784 46.9571 54.6893C44.3355 56.2064 44.3355 56.2064 41.6408 57.7567C42.2794 59.1539 42.9514 59.7862 44.023 60.9972C49.0932 66.1408 61.7823 65.8879 64.0581 58.1028C64.1511 57.8365 64.7634 56.0532 64.2709 53.3053ZM38.0542 32.172H31.5067C31.5067 37.828 31.4801 43.444 31.4801 49.1C31.4801 52.6996 31.6663 56 31.0808 57.0114C30.1227 59.0008 27.6408 58.7546 26.5096 58.3688C25.3584 57.8032 24.7729 56.9979 24.0942 55.8603C23.9079 55.5344 23.7681 55.2815 23.7215 55.2614C21.9449 56.3461 20.1749 57.4372 18.3983 58.522C19.2833 60.3383 20.5874 61.9153 22.2576 62.9401C24.7528 64.4372 28.1064 64.8964 31.6131 64.0912C33.8954 63.4259 35.8649 62.0486 36.8964 59.9525C38.3869 57.2043 38.0674 53.8773 38.0542 50.1978C38.0876 44.1958 38.0542 38.194 38.0542 32.172Z" fill="#444444"/>
</svg>
