<svg width="73" height="70" viewBox="0 0 73 70" fill="none" xmlns="http://www.w3.org/2000/svg">
<path d="M37.0055 59.9518C36.7627 59.9032 36.532 59.8425 36.3135 59.7697C36.0949 59.6969 35.8642 59.6361 35.6214 59.5876L35.2572 59.4419C35.0144 59.3933 34.7837 59.3326 34.5652 59.2598C34.3466 59.1869 34.116 59.1019 33.8731 59.0048L33.6546 58.932C33.4603 58.8834 33.2661 58.8227 33.0718 58.7499C32.8776 58.677 32.6833 58.592 32.4891 58.4949L32.1248 58.3492C31.9306 58.3006 31.7242 58.2278 31.5057 58.1307C31.2871 58.0335 31.0564 57.9364 30.8136 57.8393L30.5951 57.6936C30.4008 57.645 30.2066 57.5722 30.0123 57.4751C29.8181 57.3779 29.6481 57.2808 29.5024 57.1837L29.1382 57.038C28.9925 56.9894 28.8468 56.9287 28.7011 56.8559C28.5554 56.783 28.434 56.698 28.3369 56.6009C28.2398 56.5524 28.1426 56.5038 28.0455 56.4552C27.9484 56.4067 27.8512 56.3581 27.7541 56.3095C27.5599 56.2124 27.3777 56.1153 27.2078 56.0182C27.0378 55.921 26.88 55.8239 26.7343 55.7268L26.3701 55.5811C26.1272 55.4354 25.8966 55.2897 25.678 55.144C25.4595 54.9983 25.2531 54.8769 25.0588 54.7798L24.6946 54.4884C24.5489 54.3913 24.3911 54.2941 24.2211 54.197C24.0511 54.0999 23.8933 54.0028 23.7476 53.9056L23.4562 53.6871C23.3105 53.59 23.1527 53.4807 22.9827 53.3593C22.8128 53.2379 22.6549 53.1286 22.5092 53.0315L22.145 52.7401C21.9993 52.643 21.8658 52.5337 21.7444 52.4123C21.623 52.2909 21.4894 52.1816 21.3437 52.0845L20.9795 51.7931C20.8338 51.6474 20.676 51.5017 20.506 51.356C20.336 51.2104 20.1539 51.0647 19.9597 50.919L19.8868 50.8461C19.6926 50.7004 19.5104 50.5426 19.3405 50.3726C19.1705 50.2027 18.9884 50.0448 18.7941 49.8991L18.5027 49.6078C18.3571 49.5106 18.2235 49.4014 18.1021 49.28C17.9807 49.1585 17.8714 49.025 17.7743 48.8793L17.4829 48.5879C17.2887 48.3937 17.1187 48.2237 16.973 48.078C16.8273 47.9323 16.6816 47.7623 16.5359 47.5681H16.4631C16.3174 47.3738 16.1595 47.1917 15.9896 47.0217C15.8196 46.8518 15.6618 46.6697 15.5161 46.4754L15.2975 46.184C15.1519 46.0383 15.0304 45.8926 14.9333 45.7469C14.8362 45.6013 14.7391 45.4556 14.6419 45.3099L14.3506 45.0185C14.2049 44.8242 14.0713 44.6421 13.9499 44.4722C13.8285 44.3022 13.6949 44.1443 13.5493 43.9987C11.801 41.5705 10.3441 38.948 9.17853 36.1313C8.013 33.3147 7.22384 30.4373 6.81105 27.4992C6.39826 24.5611 6.4104 21.5987 6.84747 18.612C7.28454 15.6254 8.20725 12.7722 9.6156 10.0527L4.58926 16.3902C2.98666 18.7213 1.82114 21.1859 1.09268 23.784C0.364227 26.3822 0 29.0289 0 31.7242C0 34.4195 0.339945 37.1026 1.01984 39.7736C1.69973 42.4446 2.64672 45.0185 3.86081 47.4952C3.90937 47.5924 3.97008 47.7016 4.04292 47.823C4.11577 47.9445 4.17647 48.078 4.22504 48.2237L4.44357 48.6608L4.58926 48.8793L4.88065 49.3164C4.92921 49.4621 5.00205 49.6078 5.09918 49.7534C5.19631 49.8991 5.26915 50.0205 5.31772 50.1177L5.6091 50.6276C5.70623 50.7247 5.79121 50.8461 5.86406 50.9918C5.9369 51.1375 6.02189 51.2832 6.11902 51.4289L6.33755 51.7931C6.48325 51.9874 6.62894 52.1816 6.77463 52.3759C6.92032 52.5701 7.04173 52.7644 7.13885 52.9586H7.2117L7.28454 53.1772C7.43024 53.3229 7.56379 53.4686 7.68519 53.6143C7.8066 53.7599 7.91587 53.9299 8.013 54.1242L8.30438 54.4156C8.40151 54.5612 8.51078 54.7069 8.63219 54.8526C8.7536 54.9983 8.86286 55.144 8.95999 55.2897L9.25137 55.5811C9.39706 55.7268 9.54275 55.8967 9.68845 56.091C9.83414 56.2853 9.97983 56.4552 10.1255 56.6009L10.1984 56.6738C10.3441 56.868 10.5019 57.038 10.6719 57.1837C10.8418 57.3294 10.9997 57.4993 11.1454 57.6936L11.4367 57.985C11.5824 58.0821 11.716 58.1914 11.8374 58.3128C11.9588 58.4342 12.0681 58.5677 12.1652 58.7134L12.5294 59.0048C12.6751 59.1505 12.8329 59.3083 13.0029 59.4783C13.1729 59.6483 13.355 59.8061 13.5493 59.9518L13.6949 60.0975C13.8892 60.2432 14.0592 60.3767 14.2049 60.4982C14.3506 60.6196 14.4962 60.7531 14.6419 60.8988L15.0062 61.1902C15.1519 61.2873 15.2854 61.3844 15.4068 61.4816C15.5282 61.5787 15.6618 61.6758 15.8075 61.7729L16.2445 62.1372C16.3902 62.2343 16.5359 62.3314 16.6816 62.4286C16.8273 62.5257 16.973 62.6228 17.1187 62.7199L17.4829 63.0113C17.6286 63.1084 17.7743 63.2056 17.92 63.3027C18.0657 63.3998 18.2114 63.497 18.3571 63.5941L18.7213 63.8126C18.9641 63.9583 19.1948 64.104 19.4133 64.2497C19.6318 64.3954 19.8382 64.5411 20.0325 64.6868L20.3967 64.8325C20.591 64.9296 20.7731 65.0267 20.9431 65.1238C21.113 65.221 21.2709 65.3181 21.4166 65.4152C21.5137 65.4638 21.6108 65.5123 21.7079 65.5609C21.8051 65.6095 21.9022 65.658 21.9993 65.7066C22.0965 65.7552 22.2057 65.8159 22.3271 65.8887C22.4485 65.9616 22.5578 66.0223 22.6549 66.0708L23.1649 66.2894C23.3591 66.3865 23.5412 66.4836 23.7112 66.5807C23.8812 66.6779 24.0633 66.7507 24.2575 66.7993L24.5489 66.945C24.7432 67.0421 24.9496 67.1392 25.1681 67.2364C25.3866 67.3335 25.6173 67.4063 25.8601 67.4549L26.1515 67.6006C26.3458 67.6977 26.5522 67.7827 26.7707 67.8555C26.9892 67.9284 27.1956 67.9891 27.3899 68.0377L27.5356 68.1105C27.7784 68.2076 28.0212 68.2926 28.264 68.3655C28.5069 68.4383 28.7254 68.499 28.9196 68.5476L29.2839 68.6933C29.5267 68.7418 29.7695 68.8025 30.0123 68.8754C30.2551 68.9482 30.498 69.0089 30.7408 69.0575C38.511 70.4658 44.9699 70.2959 50.1177 68.5476C55.2654 66.7993 59.369 64.5775 62.4286 61.8822C65.4881 59.1869 67.6491 56.6009 68.9118 54.1242C70.1745 51.6474 70.8058 50.4091 70.8058 50.4091C68.9118 52.8858 66.69 54.9133 64.1404 56.4917C61.5908 58.07 58.8348 59.2355 55.8725 59.9882C52.9101 60.741 49.8263 61.1052 46.6211 61.0809C43.4159 61.0566 40.2107 60.6803 37.0055 59.9518ZM25.8601 34.8201C26.2001 35.3058 26.5643 35.8157 26.9528 36.3499C27.3413 36.8841 27.7541 37.3697 28.1912 37.8068C28.3854 37.9525 28.5676 38.1225 28.7375 38.3167C28.9075 38.511 29.0896 38.6809 29.2839 38.8266L29.5024 39.118C29.6967 39.3123 29.8788 39.4822 30.0487 39.6279C30.2187 39.7736 30.4008 39.9436 30.5951 40.1378H30.6679C30.8622 40.3321 31.0686 40.5142 31.2871 40.6842C31.5057 40.8542 31.7121 41.0363 31.9063 41.2305L32.1977 41.4491C32.3919 41.5948 32.5983 41.7404 32.8169 41.8861C33.0354 42.0318 33.2661 42.2018 33.5089 42.3961C33.606 42.4446 33.7032 42.5053 33.8003 42.5782C33.8974 42.651 33.9945 42.7117 34.0917 42.7603L34.3831 42.9788C34.5287 43.0759 34.6866 43.1731 34.8565 43.2702C35.0265 43.3673 35.1844 43.4645 35.33 43.5616L35.4757 43.6344C35.6214 43.7316 35.7671 43.8165 35.9128 43.8894C36.0585 43.9622 36.2042 44.0472 36.3499 44.1443L36.6413 44.29C36.7384 44.3386 36.8355 44.3872 36.9326 44.4357C37.0298 44.4843 37.1269 44.5329 37.224 44.5814L37.3697 44.6543C37.564 44.7514 37.7582 44.8485 37.9525 44.9456C38.1467 45.0428 38.3653 45.1399 38.6081 45.237L38.8266 45.3099C39.0209 45.407 39.203 45.492 39.373 45.5648C39.5429 45.6377 39.7008 45.6984 39.8465 45.7469L40.2835 45.8926C40.4778 45.9412 40.6478 45.9898 40.7935 46.0383C40.9391 46.0869 41.0848 46.1597 41.2305 46.2569L41.6676 46.3297C41.9104 46.4268 42.1411 46.5118 42.3596 46.5847C42.5782 46.6575 42.8088 46.7182 43.0517 46.7668C49.025 47.7381 53.9299 47.5317 57.7664 46.1476C61.603 44.7635 64.6139 43.0395 66.7993 40.9756C68.9846 38.9116 70.4901 36.9448 71.3157 35.0751C72.1413 33.2054 72.5541 32.2705 72.5541 32.2705C71.34 34.0674 69.8345 35.6093 68.0377 36.8962C66.2408 38.1832 64.2618 39.1909 62.1007 39.9193C59.9397 40.6478 57.6208 41.0484 55.144 41.1213C52.6673 41.1941 50.142 40.8906 47.5681 40.2107C47.3738 40.1621 47.1553 40.1014 46.9125 40.0286C46.6697 39.9557 46.4511 39.8707 46.2569 39.7736L45.8198 39.7008C45.6741 39.6036 45.5163 39.5308 45.3463 39.4822C45.1763 39.4337 45.0185 39.3851 44.8728 39.3365L44.4357 39.1909C44.2415 39.0937 44.0594 39.0209 43.8894 38.9723C43.7194 38.9238 43.5616 38.8509 43.4159 38.7538L43.1245 38.6809C42.9303 38.5838 42.7239 38.4867 42.5053 38.3896C42.2868 38.2924 42.0804 38.1953 41.8861 38.0982C41.789 38.0496 41.6919 37.9889 41.5948 37.9161C41.4976 37.8432 41.3762 37.7825 41.2305 37.7339L40.8663 37.5883C40.7692 37.4911 40.6478 37.4061 40.5021 37.3333C40.3564 37.2605 40.235 37.1997 40.1378 37.1512L39.9193 37.0055C39.7736 36.9084 39.6158 36.8112 39.4458 36.7141C39.2758 36.617 39.118 36.5199 38.9723 36.4227L38.6809 36.2042C38.5838 36.1556 38.4745 36.0949 38.3531 36.0221C38.2317 35.9492 38.1225 35.8885 38.0253 35.84C37.8311 35.6943 37.6247 35.5364 37.4061 35.3665C37.1876 35.1965 36.9569 35.0387 36.7141 34.893L36.4227 34.6016C34.1888 32.8533 32.2098 30.7893 30.4858 28.4097C28.7618 26.0301 27.487 23.4562 26.6614 20.6881C25.7387 17.8229 25.3988 14.8605 25.6416 11.801C25.8844 8.74146 26.7828 5.90048 28.3369 3.27805L24.5489 8.66861C23.3834 10.3198 22.5214 12.1045 21.9629 14.0228C21.4044 15.941 21.1009 17.8836 21.0523 19.8504C21.0038 21.8172 21.2223 23.784 21.7079 25.7509C22.1936 27.7177 22.8735 29.5753 23.7476 31.3235C24.0876 31.9549 24.4275 32.5498 24.7675 33.1083C25.1074 33.6667 25.4716 34.2374 25.8601 34.8201ZM51.1375 26.5157C51.2346 26.5643 51.3318 26.6007 51.4289 26.625C51.526 26.6493 51.6231 26.6857 51.7203 26.7343L52.0117 26.8071C52.1088 26.8557 52.2302 26.9043 52.3759 26.9528C52.5216 27.0014 52.6673 27.0257 52.813 27.0257C59.4662 28.3369 63.9826 27.4749 66.3622 24.4397C68.7418 21.4044 70.1745 19.5469 70.6601 18.867C69.0575 21.1495 66.9814 22.5942 64.4318 23.2013C61.8822 23.8083 58.9805 23.7233 55.7268 22.9463C55.4354 22.8492 55.1561 22.7642 54.889 22.6914C54.6219 22.6185 54.367 22.5335 54.1242 22.4364C53.8328 22.3393 53.5293 22.2179 53.2136 22.0722C52.8979 21.9265 52.5944 21.7808 52.303 21.6351C51.7203 21.3923 51.1496 21.1009 50.5912 20.761C50.0327 20.421 49.5106 20.0568 49.025 19.6683C47.5681 18.5513 46.2811 17.228 45.1642 15.6982C44.0472 14.1684 43.1974 12.5173 42.6146 10.7447C42.0318 8.97213 41.7769 7.16314 41.8497 5.31772C41.9226 3.47231 42.4203 1.69973 43.343 0L41.3034 2.84097C39.9436 4.83208 39.1787 7.01745 39.0087 9.39706C38.8388 11.7767 39.2394 14.0835 40.2107 16.3174C41.2305 18.697 42.6996 20.7731 44.6178 22.5457C46.5361 24.3182 48.7093 25.6416 51.1375 26.5157Z" fill="#444444"/>
</svg>
