<svg width="33" height="70" viewBox="0 0 33 70" fill="none" xmlns="http://www.w3.org/2000/svg">
<path d="M22.5218 7.80199C19.5709 4.31629 17.0299 0.776113 16.5107 0.040848C16.4561 -0.013616 16.3741 -0.013616 16.3195 0.040848C15.8003 0.776113 13.2593 4.31629 10.3084 7.80199C-15.02 39.9629 14.2976 61.667 14.2976 61.667L14.5435 61.8304C14.7621 65.18 15.3085 70 15.3085 70H16.4014H17.4944C17.4944 70 18.0408 65.2072 18.2594 61.8304L18.5053 61.6399C18.5326 61.6399 47.8502 39.9629 22.5218 7.80199ZM16.4014 61.1767C16.4014 61.1767 15.0899 60.0603 14.7348 59.4883V59.4341L16.3195 24.4135C16.3195 24.3046 16.4834 24.3046 16.4834 24.4135L18.0681 59.4341V59.4883C17.7129 60.0603 16.4014 61.1767 16.4014 61.1767Z" fill="#444444"/>
</svg>
