<?xml version="1.0" encoding="UTF-8" standalone="no"?>
<!DOCTYPE svg PUBLIC "-//W3C//DTD SVG 1.1//EN" "http://www.w3.org/Graphics/SVG/1.1/DTD/svg11.dtd">
<svg width="100%" height="100%" viewBox="0 0 68 70" version="1.1" xmlns="http://www.w3.org/2000/svg" xmlns:xlink="http://www.w3.org/1999/xlink" xml:space="preserve" xmlns:serif="http://www.serif.com/" style="fill-rule:evenodd;clip-rule:evenodd;stroke-linejoin:round;stroke-miterlimit:2;">
    <g id="Artboard1" transform="matrix(0.838953,0,0,0.9343,-0.0738617,0.0628641)">
        <rect x="0.088" y="-0.067" width="80.934" height="74.922" style="fill:none;"/>
        <clipPath id="_clip1">
            <rect x="0.088" y="-0.067" width="80.934" height="74.922"/>
        </clipPath>
        <g clip-path="url(#_clip1)">
            <g transform="matrix(0.0289458,0,0,0.0280774,-0.0087047,-0.172863)">
                <g transform="matrix(1.1562,0,0,1.07032,0.0880404,-0.0672847)">
                    <path d="M2414.61,1497C2457.01,1625.36 2276.92,1720.44 2220.72,1746.51C2149.61,1779.55 2033.8,1799.63 1939.1,1795.32L1934.71,1795.02L1917.7,1793.53L1916.18,1806.42C1915.45,1812.7 1914.69,1819.29 1913.87,1826.19C1907.52,2070.23 1872.41,2225.11 1800.18,2327.94C1723.79,2436.72 1618.18,2467.08 1525.2,2487.01C1499.11,2492.59 1469.37,2496.68 1438.2,2496.68C1376.05,2496.68 1308.18,2480.45 1252.08,2427.49C1197.9,2376.37 1176.61,2311.09 1163.87,2272.1C1161.88,2265.97 1160,2260.19 1158.6,2256.41C1133.07,2187.51 1124.45,2089.05 1119.37,1962.41C1118.62,1943.68 1118.05,1923.65 1117.48,1903.23C1117.14,1890.64 1116.74,1876.06 1116.2,1860.79C1030.39,1898.42 929.803,1905.13 822.418,1878.29C792.62,1870.84 762.784,1858.26 738.383,1842.88C719.17,1830.75 704.693,1817.69 693.842,1804.55C608.235,1875.85 526.841,1865.39 482.045,1850.47C402.119,1823.81 330.923,1749.56 264.386,1623.49C217.469,1534.57 172.113,1418.85 129.58,1279.49C55.572,1037.03 8.569,781.373 4.365,697.347C-8.872,432.695 62.702,243.207 217.099,134.146C344.606,44.069 518.925,16.402 735.211,51.91C827.171,67.003 906.803,90.656 956.419,107.434C1046.04,54.248 1150.93,28.37 1269.64,30.264C1332.96,31.287 1393.32,36.816 1449.45,46.721C1509.74,28.029 1625.3,2.038 1756.95,3.647C2003.72,6.592 2208.27,102.833 2348.48,281.981C2401.45,349.664 2446.79,499.299 2361.95,827.76C2309.49,1030.89 2218.35,1246.69 2106.27,1435.92C2135.96,1435.09 2176.65,1430.78 2231.49,1419.46C2262.96,1412.98 2289.54,1411.5 2312.76,1414.96C2362,1422.32 2400.07,1452.98 2414.61,1497ZM2346.38,1515.36C2335.64,1482.89 2301.08,1472.45 2243.66,1484.3C2073.17,1519.49 2012.12,1495.12 1992.07,1480.36C2124.59,1278.48 2233.6,1034.45 2292.41,806.777C2320.27,698.928 2335.66,598.768 2336.92,517.128C2338.31,427.525 2323.04,361.68 2291.57,321.457C2164.67,159.304 1978.42,72.324 1752.97,69.938C1597.98,68.196 1467.02,107.86 1441.64,119.015C1388.18,105.721 1329.89,97.558 1266.44,96.517C1150.09,94.633 1049.52,122.49 966.248,179.274C930.077,165.809 836.602,133.72 722.286,115.303C524.654,83.488 367.605,107.595 255.533,186.991C121.806,281.735 60.07,451.093 72.029,690.35C76.053,770.843 121.92,1018.47 194.299,1255.62C289.573,1567.74 393.142,1744.44 502.109,1780.79C514.863,1785.04 529.568,1788.01 545.788,1788.01C585.538,1788.01 634.274,1770.1 684.979,1709.14C746.825,1634.95 810.8,1562.56 876.825,1492.06C919.662,1515.05 966.721,1527.89 1014.85,1529.18C1014.95,1530.44 1015.07,1531.69 1015.18,1532.94C1006.9,1542.83 998.785,1552.85 990.848,1563.01C957.499,1605.34 950.558,1614.16 843.211,1636.26C812.674,1642.57 731.575,1659.28 730.381,1716.13C729.094,1778.24 826.253,1804.33 837.322,1807.09C875.897,1816.75 913.062,1821.52 948.504,1821.52C1034.7,1821.52 1110.55,1793.18 1171.17,1738.37C1169.31,1959.81 1178.54,2178 1205.13,2244.48C1226.9,2298.91 1280.1,2431.92 1448.13,2431.91C1472.79,2431.91 1499.93,2429.04 1529.78,2422.64C1705.15,2385.05 1781.31,2307.54 1810.77,2136.65C1826.53,2045.33 1853.58,1827.25 1866.31,1710.28C1893.16,1718.66 1927.73,1722.49 1965.11,1722.48C2043.05,1722.48 2133,1705.92 2189.4,1679.74C2252.77,1650.31 2367.11,1578.1 2346.38,1515.36ZM1928.75,724.91C1928.17,759.443 1923.42,790.794 1918.38,823.518C1912.95,858.713 1907.35,895.102 1905.94,939.274C1904.54,982.262 1909.91,1026.95 1915.1,1070.18C1925.59,1157.48 1936.36,1247.36 1894.69,1336.04C1887.77,1323.78 1881.6,1311.1 1876.22,1298.08C1871.04,1285.53 1859.8,1265.36 1844.22,1237.44C1783.63,1128.78 1641.74,874.318 1714.37,770.484C1736.01,739.578 1790.92,707.8 1928.75,724.91ZM1864.02,772.766C1861.59,755.428 1830.75,750.486 1801.47,754.557C1772.23,758.629 1743.88,771.828 1746.25,789.203C1748.14,802.715 1772.54,825.781 1801.42,825.781C1803.86,825.781 1806.33,825.62 1808.81,825.27C1828.08,822.6 1842.23,810.356 1848.95,803.302C1859.18,792.546 1865.11,780.558 1864.02,772.766ZM1761.68,139.865C1963.69,144.325 2123.48,219.895 2236.61,364.464C2323.39,475.352 2227.84,979.913 1951.23,1415.2C1948.44,1411.66 1945.65,1408.14 1942.84,1404.62L1939.33,1400.25C2010.81,1282.2 1996.84,1165.41 1984.39,1061.86C1979.28,1019.36 1974.45,979.222 1975.68,941.518C1976.95,901.559 1982.24,867.283 1987.35,834.142C1993.63,793.303 2000.02,751.044 1998.26,701.229C1999.57,696.002 2000.1,689.829 1999.41,682.5C1994.91,634.73 1940.37,491.761 1829.21,362.362C1768.4,291.583 1679.73,212.377 1558.65,158.954C1610.73,148.159 1681.94,138.094 1761.68,139.865ZM631.319,1664.52C575.454,1731.69 536.878,1718.82 524.19,1714.59C441.528,1687.02 345.609,1512.3 261.044,1235.25C187.869,995.518 145.109,754.453 141.719,686.856C131.038,473.07 182.861,324.079 295.756,244.012C479.488,113.722 781.56,191.706 902.94,231.257C901.198,232.981 899.38,234.59 897.656,236.342C698.472,437.496 703.197,781.174 703.689,802.185C703.67,810.29 704.352,821.766 705.28,837.551C708.708,895.357 715.089,1002.94 698.046,1124.78C682.214,1237.99 717.116,1348.81 793.784,1428.81C801.653,1437 809.923,1444.8 818.564,1452.18C784.439,1488.73 710.27,1569.55 631.319,1664.52ZM854.252,1739.39C835.068,1734.6 817.816,1726.28 807.694,1719.38C816.149,1715.4 831.195,1709.98 857.291,1704.6C983.576,1678.61 1003.08,1660.26 1045.67,1606.19C1055.43,1593.78 1066.51,1579.72 1081.84,1562.6C1104.67,1537.04 1115.12,1541.36 1134.06,1549.22C1149.41,1555.57 1164.36,1574.81 1170.42,1595.98C1173.29,1605.98 1176.51,1624.95 1165.97,1639.72C1077,1764.3 947.358,1762.69 854.252,1739.39ZM2160.02,1616.45C2119.68,1635.17 2052.18,1649.21 1988.06,1652.23C1917.23,1655.55 1881.17,1644.3 1872.69,1637.38C1868.72,1555.53 1899.18,1546.98 1931.42,1537.93C1936.48,1536.51 1941.42,1535.11 1946.2,1533.45C1949.16,1535.86 1952.41,1538.26 1955.97,1540.61C2012.89,1578.18 2114.43,1582.23 2257.78,1552.64L2259.35,1552.33C2240.01,1570.4 2206.93,1594.66 2160.02,1616.45ZM844.167,1380.52C782.374,1316.04 754.309,1226.36 767.158,1134.43C785.149,1005.74 778.511,893.644 774.941,833.422C774.44,824.995 773.995,817.61 773.739,811.786C802.836,785.984 937.681,713.737 1033.85,735.771C1077.72,745.817 1104.46,775.701 1115.58,827.097C1173.11,1093.2 1123.19,1204.11 1083.08,1293.23C1074.82,1311.59 1067.01,1328.95 1060.34,1346.9L1055.17,1360.78C1042.08,1395.88 1029.91,1428.51 1022.36,1459.49C956.666,1459.3 892.761,1431.24 844.167,1380.52ZM1023.35,772.07C997.968,768.538 974.988,771.8 963.36,780.606C956.827,785.558 954.8,791.296 954.251,795.244C952.793,805.707 960.122,817.278 964.629,823.243C977.374,840.136 995.989,851.744 1014.42,854.301C1017.09,854.68 1019.75,854.85 1022.39,854.85C1053.11,854.85 1081.06,830.923 1083.52,813.263C1086.6,791.144 1054.49,776.397 1023.35,772.07ZM1515.16,2354.41C1360.67,2387.51 1305.97,2308.68 1269.92,2218.57C1246.66,2160.39 1235.22,1898.05 1243.33,1608.34C1243.44,1604.48 1242.89,1600.76 1241.83,1597.26C1240.88,1590.34 1239.43,1583.5 1237.51,1576.79C1225.45,1534.63 1196.05,1499.37 1160.77,1484.75C1146.76,1478.94 1121.04,1468.29 1090.14,1476.2C1096.73,1449.04 1108.16,1418.37 1120.55,1385.17L1125.75,1371.2C1131.6,1355.45 1138.95,1339.14 1146.71,1321.87C1188.69,1228.62 1246.17,1100.9 1183.78,812.354C1160.41,704.278 1082.37,651.499 964.07,663.761C893.149,671.1 828.26,699.714 795.896,716.123C788.936,719.646 782.573,723.055 776.627,726.369C785.66,617.478 819.785,413.976 947.443,285.22C1027.82,204.167 1134.87,164.133 1265.29,166.292C1522.27,170.496 1687.07,302.377 1780.07,412.281C1860.21,506.978 1903.61,602.375 1920.92,653.829C1790.68,640.582 1702.1,666.289 1657.2,730.488C1559.51,870.133 1710.64,1141.17 1783.28,1271.43C1796.6,1295.3 1808.1,1315.93 1811.71,1324.7C1835.37,1382.02 1865.99,1420.3 1888.34,1448.23C1895.2,1456.79 1901.85,1465.09 1906.9,1472.35C1867.45,1483.72 1796.6,1509.99 1803.06,1641.33C1797.85,1707.24 1760.82,2015.79 1742,2124.8C1717.17,2268.82 1664.17,2322.45 1515.16,2354.41Z" style="fill:rgb(68,68,68);"/>
                </g>
                <g transform="matrix(1.1562,0,0,1.07032,0.0880404,-0.0672847)">
                    <path d="M1761.68,139.865C1963.69,144.325 2123.48,219.895 2236.61,364.464C2323.39,475.352 2227.84,979.913 1951.23,1415.2C1948.44,1411.66 1945.65,1408.14 1942.84,1404.62L1939.33,1400.25C2010.81,1282.2 1996.84,1165.41 1984.39,1061.86C1979.28,1019.36 1974.45,979.222 1975.68,941.518C1976.95,901.559 1982.24,867.283 1987.35,834.142C1993.63,793.303 2000.02,751.044 1998.26,701.229C1999.57,696.002 2000.1,689.829 1999.41,682.5C1994.91,634.73 1940.37,491.761 1829.21,362.362C1768.4,291.583 1679.73,212.377 1558.65,158.954C1610.73,148.159 1681.94,138.094 1761.68,139.865ZM631.319,1664.52C575.454,1731.69 536.878,1718.82 524.19,1714.59C441.528,1687.02 345.609,1512.3 261.044,1235.25C187.869,995.518 145.109,754.453 141.719,686.856C131.038,473.07 182.861,324.079 295.756,244.012C479.488,113.722 781.56,191.706 902.94,231.257C901.198,232.981 899.38,234.59 897.656,236.342C698.472,437.496 703.197,781.174 703.689,802.185C703.67,810.29 704.352,821.766 705.28,837.551C708.708,895.357 715.089,1002.94 698.046,1124.78C682.214,1237.99 717.116,1348.81 793.784,1428.81C801.653,1437 809.923,1444.8 818.564,1452.18C784.439,1488.73 710.27,1569.55 631.319,1664.52ZM844.167,1380.52C782.374,1316.04 754.309,1226.36 767.158,1134.43C785.149,1005.74 778.511,893.644 774.941,833.422C774.44,824.995 773.995,817.61 773.739,811.786C802.836,785.984 937.681,713.737 1033.85,735.771C1077.72,745.817 1104.46,775.701 1115.58,827.097C1173.11,1093.2 1123.19,1204.11 1083.08,1293.23C1074.82,1311.59 1067.01,1328.95 1060.34,1346.9L1055.17,1360.78C1042.08,1395.88 1029.91,1428.51 1022.36,1459.49C956.666,1459.3 892.761,1431.24 844.167,1380.52ZM1023.35,772.07C997.968,768.538 974.988,771.8 963.36,780.606C956.827,785.558 954.8,791.296 954.251,795.244C952.793,805.707 960.122,817.278 964.629,823.243C977.374,840.136 995.989,851.744 1014.42,854.301C1017.09,854.68 1019.75,854.85 1022.39,854.85C1053.11,854.85 1081.06,830.923 1083.52,813.263C1086.6,791.144 1054.49,776.397 1023.35,772.07ZM1515.16,2354.41C1360.67,2387.51 1305.97,2308.68 1269.92,2218.57C1246.66,2160.39 1235.22,1898.05 1243.33,1608.34C1243.44,1604.48 1242.89,1600.76 1241.83,1597.26C1240.88,1590.34 1239.43,1583.5 1237.51,1576.79C1225.45,1534.63 1196.05,1499.37 1160.77,1484.75C1146.76,1478.94 1121.04,1468.29 1090.14,1476.2C1096.73,1449.04 1108.16,1418.37 1120.55,1385.17L1125.75,1371.2C1131.6,1355.45 1138.95,1339.14 1146.71,1321.87C1188.69,1228.62 1246.17,1100.9 1183.78,812.354C1160.41,704.278 1082.37,651.499 964.07,663.761C893.149,671.1 828.26,699.714 795.896,716.123C788.936,719.646 782.573,723.055 776.627,726.369C785.66,617.478 819.785,413.976 947.443,285.22C1027.82,204.167 1134.87,164.133 1265.29,166.292C1522.27,170.496 1687.07,302.377 1780.07,412.281C1860.21,506.978 1903.61,602.375 1920.92,653.829C1790.68,640.582 1702.1,666.289 1657.2,730.488C1559.51,870.133 1710.64,1141.17 1783.28,1271.43C1796.6,1295.3 1808.1,1315.93 1811.71,1324.7C1835.37,1382.02 1865.99,1420.3 1888.34,1448.23C1895.2,1456.79 1901.85,1465.09 1906.9,1472.35C1867.45,1483.72 1796.6,1509.99 1803.06,1641.33C1797.85,1707.24 1760.82,2015.79 1742,2124.8C1717.17,2268.82 1664.17,2322.45 1515.16,2354.41ZM1928.75,724.91C1928.17,759.443 1923.42,790.794 1918.38,823.518C1912.95,858.713 1907.35,895.102 1905.94,939.274C1904.54,982.262 1909.91,1026.95 1915.1,1070.18C1925.59,1157.48 1936.36,1247.36 1894.69,1336.04C1887.77,1323.78 1881.6,1311.1 1876.22,1298.08C1871.04,1285.53 1859.8,1265.36 1844.22,1237.44C1783.63,1128.78 1641.74,874.318 1714.37,770.484C1736.01,739.578 1790.92,707.8 1928.75,724.91ZM1864.02,772.766C1861.59,755.428 1830.75,750.486 1801.47,754.557C1772.23,758.629 1743.88,771.828 1746.25,789.203C1748.14,802.715 1772.54,825.781 1801.42,825.781C1803.86,825.781 1806.33,825.62 1808.81,825.27C1828.08,822.6 1842.23,810.356 1848.95,803.302C1859.18,792.546 1865.11,780.558 1864.02,772.766ZM2160.02,1616.45C2119.68,1635.17 2052.18,1649.21 1988.06,1652.23C1917.23,1655.55 1881.17,1644.3 1872.69,1637.38C1868.72,1555.53 1899.18,1546.98 1931.42,1537.93C1936.48,1536.51 1941.42,1535.11 1946.2,1533.45C1949.16,1535.86 1952.41,1538.26 1955.97,1540.61C2012.89,1578.18 2114.43,1582.23 2257.78,1552.64L2259.35,1552.33C2240.01,1570.4 2206.93,1594.66 2160.02,1616.45ZM854.252,1739.39C835.068,1734.6 817.816,1726.28 807.694,1719.38C816.149,1715.4 831.195,1709.98 857.291,1704.6C983.576,1678.61 1003.08,1660.26 1045.67,1606.19C1055.43,1593.78 1066.51,1579.72 1081.84,1562.6C1104.67,1537.04 1115.12,1541.36 1134.06,1549.22C1149.41,1555.57 1164.36,1574.81 1170.42,1595.98C1173.29,1605.98 1176.51,1624.95 1165.97,1639.72C1077,1764.3 947.358,1762.69 854.252,1739.39Z" style="fill:rgb(68,68,68);"/>
                </g>
            </g>
        </g>
    </g>
</svg>
