<svg width="79" height="70" viewBox="0 0 79 70" fill="none" xmlns="http://www.w3.org/2000/svg">
<path d="M46.3535 35C46.3535 36.9836 45.6618 38.667 44.2785 40.0503C42.8952 41.4336 41.2118 42.1253 39.2282 42.1253C37.2446 42.1253 35.5611 41.4336 34.1779 40.0503C32.7946 38.667 32.1029 36.9836 32.1029 35C32.1029 33.0164 32.7946 31.333 34.1779 29.9497C35.5611 28.5664 37.2446 27.8747 39.2282 27.8747C41.2118 27.8747 42.8952 28.5664 44.2785 29.9497C45.6618 31.333 46.3535 33.0164 46.3535 35ZM66.3199 23.255C65.6413 22.994 64.9497 22.733 64.245 22.472C63.5403 22.211 62.7964 21.9761 62.0134 21.7673C62.2222 21.0365 62.4049 20.2927 62.5615 19.5358C62.7181 18.7789 62.8486 18.035 62.953 17.3043C63.6316 13.1805 63.6186 9.70917 62.9139 6.89038C62.2092 4.07159 60.8389 2.1141 58.8031 1.0179C58.2289 0.652496 57.6156 0.391502 56.9631 0.234901C56.3106 0.0783005 55.5928 0 54.8098 0C52.6175 0 50.1771 0.769951 47.4888 2.30984C44.8005 3.84974 42.047 5.97688 39.2282 8.69128C36.4094 5.97688 33.6559 3.84974 30.9676 2.30984C28.2793 0.769951 25.8389 0 23.6465 0C22.8635 0 22.1458 0.0783005 21.4933 0.234901C20.8408 0.391502 20.2274 0.652496 19.6532 1.0179C17.6174 2.1663 16.2472 4.14989 15.5425 6.96868C14.8378 9.78747 14.8248 13.2327 15.5034 17.3043C15.6078 18.035 15.7383 18.7789 15.8949 19.5358C16.0515 20.2927 16.2342 21.0365 16.443 21.7673C15.66 21.9761 14.9161 22.198 14.2114 22.4329C13.5067 22.6678 12.8151 22.9418 12.1365 23.255C8.22148 24.7166 5.21999 26.4653 3.13199 28.5011C1.044 30.5369 0 32.7032 0 35C0 37.2968 1.044 39.4631 3.13199 41.4989C5.21999 43.5347 8.22148 45.2834 12.1365 46.745C12.8151 47.006 13.5067 47.267 14.2114 47.528C14.9161 47.789 15.66 48.0239 16.443 48.2327C16.2342 48.9635 16.0515 49.7073 15.8949 50.4642C15.7383 51.2211 15.6078 51.965 15.5034 52.6957C14.8248 56.8195 14.8378 60.2908 15.5425 63.1096C16.2472 65.9284 17.6174 67.8859 19.6532 68.9821C20.2274 69.3475 20.8408 69.6085 21.4933 69.7651C22.1458 69.9217 22.8635 70 23.6465 70C25.8389 70 28.2923 69.2301 31.0067 67.6902C33.7211 66.1503 36.4616 64.0231 39.2282 61.3087C42.047 64.0231 44.8005 66.1503 47.4888 67.6902C50.1771 69.2301 52.6175 70 54.8098 70C55.5928 70 56.3106 69.9217 56.9631 69.7651C57.6156 69.6085 58.2289 69.3475 58.8031 68.9821C60.8389 67.8337 62.2092 65.8501 62.9139 63.0313C63.6186 60.2125 63.6316 56.7673 62.953 52.6957C62.8486 51.965 62.7181 51.2211 62.5615 50.4642C62.4049 49.7073 62.2222 48.9635 62.0134 48.2327C62.7964 48.0239 63.5403 47.802 64.245 47.5671C64.9497 47.3322 65.6413 47.0582 66.3199 46.745C70.2349 45.2834 73.2364 43.5347 75.3244 41.4989C77.4124 39.4631 78.4564 37.2968 78.4564 35C78.4564 32.7032 77.4124 30.5369 75.3244 28.5011C73.2364 26.4653 70.2349 24.7166 66.3199 23.255ZM57.0805 4.14989C58.3855 4.88068 59.2468 6.35533 59.6644 8.57383C60.082 10.7923 60.0037 13.5459 59.4295 16.8345C59.3773 17.5131 59.2729 18.1916 59.1163 18.8702C58.9597 19.5488 58.777 20.2535 58.5682 20.9843C56.95 20.6189 55.2796 20.3057 53.557 20.0447C51.8344 19.7837 50.0597 19.5749 48.2327 19.4183C47.1887 17.9045 46.1186 16.4691 45.0224 15.1119C43.9262 13.7547 42.83 12.4758 41.7338 11.2752C44.0306 8.97837 46.3143 7.11223 48.585 5.67673C50.8557 4.24124 52.9567 3.52349 54.8881 3.52349C55.3057 3.52349 55.6972 3.57569 56.0626 3.68009C56.428 3.78449 56.7673 3.94109 57.0805 4.14989ZM50.0336 41.264C49.5116 42.2558 48.9243 43.2606 48.2718 44.2785C47.6193 45.2964 46.9538 46.3013 46.2752 47.2931C45.0746 47.3975 43.9001 47.4627 42.7517 47.4888C41.6033 47.5149 40.4288 47.528 39.2282 47.528C38.0276 47.528 36.84 47.5149 35.6655 47.4888C34.4911 47.4627 33.3296 47.3975 32.1812 47.2931C31.5026 46.3013 30.8501 45.2964 30.2237 44.2785C29.5973 43.2606 28.997 42.2558 28.4228 41.264C27.8486 40.22 27.2875 39.176 26.7394 38.132C26.1913 37.088 25.6562 36.044 25.1342 35C25.6562 33.956 26.1913 32.912 26.7394 31.868C27.2875 30.824 27.8486 29.78 28.4228 28.736C28.997 27.7442 29.6104 26.7394 30.2629 25.7215C30.9154 24.7036 31.5809 23.6987 32.2595 22.7069C33.4079 22.6025 34.5694 22.5373 35.7438 22.5112C36.9183 22.4851 38.1059 22.472 39.3065 22.472C40.5071 22.472 41.6946 22.4851 42.8691 22.5112C44.0436 22.5373 45.179 22.6025 46.2752 22.7069C47.006 23.6987 47.6846 24.7036 48.311 25.7215C48.9374 26.7394 49.5116 27.7442 50.0336 28.736C50.66 29.78 51.2472 30.824 51.7953 31.868C52.3434 32.912 52.8784 33.956 53.4004 35C52.8784 36.044 52.3434 37.088 51.7953 38.132C51.2472 39.176 50.66 40.22 50.0336 41.264ZM55.2796 39.2282C55.7494 40.3244 56.1801 41.4075 56.5716 42.4776C56.9631 43.5477 57.3154 44.6048 57.6286 45.6488C56.5846 45.9098 55.5015 46.1316 54.3792 46.3143C53.2569 46.497 52.0955 46.6667 50.8949 46.8233C51.2603 46.2491 51.6387 45.6488 52.0302 45.0224C52.4217 44.396 52.8001 43.7435 53.1655 43.0649C53.5309 42.4385 53.8833 41.799 54.2226 41.1465C54.5619 40.494 54.9142 39.8546 55.2796 39.2282ZM39.2282 56.1409C38.4974 55.3579 37.7666 54.5227 37.0358 53.6353C36.305 52.7479 35.6003 51.8606 34.9217 50.9732C35.6525 51.0254 36.3702 51.0645 37.0749 51.0906C37.7796 51.1167 38.4974 51.1298 39.2282 51.1298C39.959 51.1298 40.6767 51.1167 41.3814 51.0906C42.0861 51.0645 42.8039 51.0254 43.5347 50.9732C42.8561 51.8606 42.1514 52.7479 41.4206 53.6353C40.6898 54.5227 39.959 55.3579 39.2282 56.1409ZM27.5615 46.745C26.3609 46.5884 25.1995 46.4187 24.0772 46.236C22.9549 46.0533 21.8717 45.8315 20.8277 45.5705C21.1409 44.5265 21.4933 43.4694 21.8848 42.3993C22.2763 41.3292 22.7069 40.2461 23.1767 39.1499C23.5421 39.7763 23.8945 40.4157 24.2338 41.0682C24.5731 41.7207 24.9254 42.3602 25.2908 42.9866C25.7084 43.6652 26.0999 44.3046 26.4653 44.9049C26.8307 45.5052 27.1961 46.1186 27.5615 46.745ZM23.1767 30.7718C22.7069 29.6756 22.2763 28.5925 21.8848 27.5224C21.4933 26.4523 21.1409 25.3952 20.8277 24.3512C21.8717 24.0902 22.9549 23.8684 24.0772 23.6857C25.1995 23.503 26.3609 23.3333 27.5615 23.1767C27.1961 23.7509 26.8177 24.3512 26.4262 24.9776C26.0347 25.604 25.6562 26.2565 25.2908 26.9351C24.9254 27.5615 24.5731 28.201 24.2338 28.8535C23.8945 29.506 23.5421 30.1454 23.1767 30.7718ZM39.2282 13.8591C39.959 14.6421 40.6898 15.4773 41.4206 16.3647C42.1514 17.2521 42.8561 18.1395 43.5347 19.0268C42.8039 18.9746 42.0861 18.9355 41.3814 18.9094C40.6767 18.8833 39.959 18.8702 39.2282 18.8702C38.4974 18.8702 37.7796 18.8833 37.0749 18.9094C36.3702 18.9355 35.6525 18.9746 34.9217 19.0268C35.6003 18.1395 36.305 17.2521 37.0358 16.3647C37.7666 15.4773 38.4974 14.6421 39.2282 13.8591ZM53.1655 27.0134L50.8949 23.255C52.0955 23.4116 53.2569 23.5813 54.3792 23.764C55.5015 23.9467 56.5846 24.1685 57.6286 24.4295C57.3154 25.4735 56.9631 26.5306 56.5716 27.6007C56.1801 28.6708 55.7494 29.7539 55.2796 30.8501C54.9142 30.2237 54.5619 29.5843 54.2226 28.9318C53.8833 28.2793 53.5309 27.6398 53.1655 27.0134ZM19.0268 16.8345C18.4526 13.5459 18.3743 10.7923 18.7919 8.57383C19.2095 6.35533 20.0708 4.88068 21.3758 4.14989C21.689 3.94109 22.0283 3.78449 22.3937 3.68009C22.7591 3.57569 23.1506 3.52349 23.5682 3.52349C25.4474 3.52349 27.5224 4.22819 29.7931 5.63758C32.0638 7.04698 34.3736 8.92617 36.7226 11.2752C35.6264 12.4758 34.5302 13.7547 33.434 15.1119C32.3378 16.4691 31.2677 17.9045 30.2237 19.4183C28.3967 19.5749 26.6219 19.7837 24.8993 20.0447C23.1767 20.3057 21.5063 20.6189 19.8881 20.9843C19.6793 20.2535 19.5097 19.5488 19.3792 18.8702C19.2487 18.1916 19.1312 17.5131 19.0268 16.8345ZM3.52349 35C3.52349 33.5384 4.38479 32.0638 6.10738 30.5761C7.82998 29.0884 10.2573 27.7703 13.3893 26.6219C14.0157 26.3609 14.6682 26.126 15.3468 25.9172C16.0254 25.7084 16.704 25.4996 17.3825 25.2908C17.8523 26.8568 18.4004 28.462 19.0268 30.1063C19.6532 31.7506 20.3579 33.4079 21.1409 35.0783C20.3579 36.7487 19.6532 38.393 19.0268 40.0112C18.4004 41.6294 17.8523 43.2215 17.3825 44.7875C13.05 43.5347 9.65697 42.0339 7.20358 40.2852C4.75019 38.5365 3.52349 36.7748 3.52349 35ZM21.3758 65.8501C20.0708 65.1193 19.2095 63.6447 18.7919 61.4262C18.3743 59.2077 18.4526 56.4541 19.0268 53.1655C19.079 52.4869 19.1834 51.8084 19.34 51.1298C19.4966 50.4512 19.6793 49.7465 19.8881 49.0157C21.5063 49.3811 23.1767 49.6943 24.8993 49.9553C26.6219 50.2163 28.3967 50.4251 30.2237 50.5817C31.2677 52.0955 32.3378 53.5309 33.434 54.8881C34.5302 56.2453 35.6264 57.5242 36.7226 58.7248C34.4258 61.0216 32.1421 62.8878 29.8714 64.3233C27.6007 65.7588 25.4996 66.4765 23.5682 66.4765C23.1506 66.4765 22.7591 66.4243 22.3937 66.3199C22.0283 66.2155 21.689 66.0589 21.3758 65.8501ZM59.4295 53.1655C60.0037 56.4541 60.082 59.2077 59.6644 61.4262C59.2468 63.6447 58.3855 65.1193 57.0805 65.8501C56.7673 66.0589 56.428 66.2155 56.0626 66.3199C55.6972 66.4243 55.3057 66.4765 54.8881 66.4765C53.0089 66.4765 50.934 65.7718 48.6633 64.3624C46.3926 62.953 44.0828 61.0738 41.7338 58.7248C42.83 57.5242 43.9262 56.2453 45.0224 54.8881C46.1186 53.5309 47.1887 52.0955 48.2327 50.5817C50.0597 50.4251 51.8344 50.2163 53.557 49.9553C55.2796 49.6943 56.95 49.3811 58.5682 49.0157C58.777 49.7465 58.9467 50.4512 59.0772 51.1298C59.2077 51.8084 59.3251 52.4869 59.4295 53.1655ZM65.0671 43.3781C64.4407 43.6391 63.7882 43.874 63.1096 44.0828C62.431 44.2916 61.7524 44.5004 61.0738 44.7092C60.604 43.1432 60.0559 41.538 59.4295 39.8937C58.8031 38.2494 58.0984 36.5921 57.3154 34.9217C58.0984 33.2513 58.8031 31.607 59.4295 29.9888C60.0559 28.3706 60.604 26.7785 61.0738 25.2125C65.4064 26.4653 68.7994 27.9661 71.2528 29.7148C73.7062 31.4635 74.9329 33.2252 74.9329 35C74.9329 36.4616 74.0716 37.9362 72.349 39.4239C70.6264 40.9116 68.1991 42.2297 65.0671 43.3781Z" fill="#444444"/>
</svg>
