<svg width="70" height="70" viewBox="0 0 70 70" fill="none" xmlns="http://www.w3.org/2000/svg">
<g clip-path="url(#clip0_11_831)">
<path d="M65.1409 0.147217H16.9478C14.268 0.147217 12.0888 2.32643 12.0888 5.00628V10.2776H14.4741H34.411H65.244V53.1994C65.244 53.2436 65.1998 53.2877 65.1557 53.2877H56.9836V58.0584H65.1557C67.8355 58.0584 70.0147 55.8792 70.0147 53.1994V5.00628C70 2.32643 67.8208 0.147217 65.1409 0.147217ZM47.0299 7.8481C45.5574 7.8481 44.3647 6.65542 44.3647 5.18298C44.3647 4.5351 44.6151 3.97557 44.9979 3.51911C45.4838 2.93014 46.1906 2.51785 47.0299 2.51785C47.8544 2.51785 48.5612 2.91541 49.0618 3.51911C49.4447 3.97557 49.695 4.54983 49.695 5.18298C49.695 6.67015 48.5023 7.8481 47.0299 7.8481ZM54.1859 7.8481C52.7135 7.8481 51.5208 6.65542 51.5208 5.18298C51.5208 4.5351 51.7859 3.97557 52.154 3.51911C52.6399 2.93014 53.3466 2.51785 54.1859 2.51785C55.0105 2.51785 55.7173 2.91541 56.2179 3.51911C56.6007 3.97557 56.8511 4.54983 56.8511 5.18298C56.8511 6.67015 55.6584 7.8481 54.1859 7.8481ZM61.342 7.8481C59.8696 7.8481 58.6769 6.65542 58.6769 5.18298C58.6769 4.5351 58.9272 3.97557 59.31 3.51911C59.796 2.93014 60.5027 2.51785 61.342 2.51785C62.1666 2.51785 62.8881 2.91541 63.374 3.51911C63.7568 3.97557 64.0071 4.54983 64.0071 5.18298C64.0071 6.67015 62.8145 7.8481 61.342 7.8481Z" fill="#444444"/>
<path d="M28.536 66.4514V60.7825H4.77072V21.7038C4.77072 20.6731 5.61001 19.8191 6.65545 19.8191H34.411C35.4417 19.8191 36.2958 20.6584 36.2958 21.7038V30.4207H41.0665V21.7038C41.0665 18.0374 38.0774 15.0483 34.411 15.0483H6.65545C2.97434 15.0631 0 18.0374 0 21.7038V63.1678C0 66.8342 2.97434 69.8233 6.65545 69.8233H29.5225C29.0219 69.0281 28.536 67.968 28.536 66.4514ZM20.5259 68.0711C19.716 68.0711 19.0093 67.6882 18.5234 67.114C18.1258 66.6575 17.8608 66.0685 17.8608 65.4059C17.8608 63.9335 19.0534 62.7408 20.5259 62.7408C21.9983 62.7408 23.191 63.9335 23.191 65.4059C23.191 66.0685 22.926 66.6428 22.5284 67.114C22.0425 67.6882 21.3357 68.0711 20.5259 68.0711Z" fill="#444444"/>
<path d="M50.5785 33.4097H34.9264C33.0417 33.4097 31.5103 34.941 31.5103 36.8257V66.466C31.5103 68.3508 33.0417 69.8674 34.9264 69.8674H50.5785C52.4632 69.8674 53.9945 68.336 53.9945 66.466V36.8257C53.9798 34.941 52.4485 33.4097 50.5785 33.4097ZM35.1031 36.9877H50.4018V63.2267H35.1031V36.9877ZM41.037 66.363C41.037 65.4206 41.8027 64.6549 42.7451 64.6549C43.6874 64.6549 44.4531 65.4206 44.4531 66.363C44.4531 67.3053 43.6874 68.071 42.7451 68.071C41.8027 68.071 41.037 67.3053 41.037 66.363Z" fill="#444444"/>
</g>
<defs>
<clipPath id="clip0_11_831">
<rect width="70" height="70" fill="white"/>
</clipPath>
</defs>
</svg>
