<svg width="94" height="70" viewBox="0 0 94 70" fill="none" xmlns="http://www.w3.org/2000/svg">
<path d="M0 29.1744C0 29.423 0.0310697 29.6405 0.0932091 29.8269C0.155348 30.0133 0.186418 30.1997 0.186418 30.3862C0.497115 31.5047 0.932091 32.53 1.49134 33.462C2.0506 34.3941 2.70306 35.2952 3.44874 36.1651C4.44297 37.4079 5.56147 38.5264 6.80426 39.5206C8.04705 40.5149 9.28984 41.478 10.5326 42.4101C11.6511 43.2179 12.7852 44.0102 13.9348 44.7869C15.0843 45.5637 16.2184 46.356 17.3369 47.1638C17.5233 47.2881 17.7097 47.4279 17.8961 47.5832C18.0826 47.7386 18.269 47.9095 18.4554 48.0959C18.269 48.2201 18.0981 48.3134 17.9427 48.3755C17.7874 48.4376 17.6476 48.5308 17.5233 48.6551C16.032 49.4008 14.5717 50.1931 13.1425 51.032C11.7133 51.8708 10.3462 52.8185 9.04128 53.8748C8.29561 54.4962 7.54993 55.1332 6.80426 55.7856C6.05859 56.4381 5.4372 57.1993 4.94008 58.0692C4.07013 59.4363 3.51087 60.85 3.26232 62.3103C3.01376 63.7705 3.20018 65.2774 3.82157 66.8309C4.00799 67.2659 4.25655 67.6853 4.56724 68.0892C4.87794 68.4931 5.21971 68.8504 5.59254 69.1611C5.71682 69.2233 5.85664 69.3009 6.01198 69.3941C6.16733 69.4874 6.30715 69.534 6.43143 69.534C6.8664 69.6582 7.28584 69.7514 7.68975 69.8136C8.09365 69.8757 8.48202 69.9379 8.85486 70H11.0919C12.3968 69.8757 13.6085 69.6116 14.727 69.2077C15.8455 68.8038 16.933 68.229 17.9893 67.4834C19.605 66.427 20.941 65.1376 21.9973 63.6152C23.0537 62.0928 23.7994 60.3995 24.2344 58.5353C24.6072 57.1061 24.7936 55.7079 24.7936 54.3409C24.7936 52.9738 24.5761 51.5757 24.1411 50.1465C24.1411 50.0222 24.1101 49.8979 24.0479 49.7736C23.9858 49.6494 23.9547 49.5251 23.9547 49.4008C23.8926 49.2765 23.8305 49.1522 23.7683 49.028C23.7062 48.9037 23.644 48.7794 23.5819 48.6551L28.7084 45.6724L28.8016 45.7656C28.7395 45.8899 28.6773 46.0297 28.6152 46.1851C28.553 46.3404 28.522 46.5113 28.522 46.6977C28.2113 47.8162 27.9627 48.9348 27.7763 50.0533C27.5899 51.1718 27.5277 52.3213 27.5899 53.502C27.7142 54.6826 27.9472 55.8478 28.2889 56.9973C28.6307 58.1469 29.1744 59.2499 29.9201 60.3063C30.4794 61.1141 31.3338 61.5335 32.4834 61.5646C33.6329 61.5956 34.4874 61.1762 35.0466 60.3063C35.2952 60.0577 35.5282 59.7781 35.7457 59.4674C35.9632 59.1567 36.134 58.8149 36.2583 58.4421C36.6933 57.5721 37.1127 56.7022 37.5166 55.8322C37.9206 54.9623 38.3089 54.0923 38.6818 53.2224L38.8682 52.9427C38.806 53.3156 38.7594 53.6884 38.7284 54.0613C38.6973 54.4341 38.6818 54.8069 38.6818 55.1798C38.6196 55.739 38.6196 56.2983 38.6818 56.8575C38.7439 57.4168 38.8682 57.976 39.0546 58.5353C39.241 58.9703 39.4896 59.3586 39.8003 59.7004C40.111 60.0422 40.5149 60.2441 41.012 60.3063C41.3848 60.3063 41.7266 60.2441 42.0373 60.1198C42.348 59.9956 42.6276 59.8091 42.8762 59.5606C43.3111 59.2499 43.684 58.8926 43.9947 58.4887C44.3054 58.0848 44.585 57.6653 44.8336 57.2304C45.5792 55.9254 46.3094 54.6205 47.024 53.3156C47.7386 52.0107 48.4066 50.7057 49.028 49.4008C49.7115 47.9095 50.364 46.4336 50.9854 44.9734C51.6067 43.5131 52.2592 42.0373 52.9427 40.5459L53.1292 40.0799C53.3156 40.6391 53.4709 41.2139 53.5952 41.8043C53.7195 42.3946 53.8748 42.9694 54.0613 43.5286C54.2477 44.15 54.4807 44.7869 54.7603 45.4394C55.0399 46.0919 55.3351 46.6977 55.6458 47.257C55.8322 47.5677 55.9099 47.8318 55.8788 48.0493C55.8478 48.2668 55.739 48.4998 55.5526 48.7483C54.6826 49.7426 53.8438 50.7523 53.036 51.7776C52.2281 52.8029 51.3893 53.8438 50.5193 54.9001C50.3329 55.0866 50.162 55.304 50.0067 55.5526C49.8513 55.8012 49.6804 56.0497 49.494 56.2983C49.4319 56.4225 49.3697 56.5779 49.3076 56.7643C49.2455 56.9507 49.1833 57.1371 49.1212 57.3236C49.059 57.6343 49.1367 57.9294 49.3542 58.2091C49.5717 58.4887 49.8358 58.6596 50.1465 58.7217C50.5193 58.846 50.8766 58.9081 51.2184 58.9081C51.5601 58.9081 51.8864 58.9081 52.1971 58.9081C53.3777 58.846 54.4807 58.613 55.506 58.2091C56.5313 57.8051 57.51 57.2614 58.4421 56.5779C59.6227 55.6458 60.4305 54.5894 60.8655 53.4088C61.3005 52.2281 61.3626 50.9232 61.0519 49.494C60.9898 49.059 60.8966 48.6551 60.7723 48.2823C60.648 47.9095 60.4927 47.5366 60.3063 47.1638C60.2441 46.9774 60.2286 46.822 60.2597 46.6977C60.2907 46.5735 60.3373 46.4492 60.3995 46.3249C61.3937 44.9578 62.3103 43.5442 63.1491 42.0839C63.988 40.6236 64.7803 39.1478 65.526 37.6565C65.526 37.5943 65.557 37.5322 65.6192 37.47C65.6813 37.4079 65.7124 37.3458 65.7124 37.2836C65.9609 38.5885 66.2872 39.8469 66.6911 41.0586C67.095 42.2703 67.6387 43.4665 68.3222 44.6471C68.0115 44.9578 67.6853 45.2685 67.3435 45.5792C67.0018 45.8899 66.6755 46.2006 66.3649 46.5113C65.6813 47.257 65.0599 48.0182 64.5007 48.7949C63.9414 49.5717 63.5375 50.4572 63.289 51.4514C63.1025 51.8242 62.9783 52.2281 62.9161 52.6631C62.854 53.0981 62.854 53.5331 62.9161 53.968C62.9783 54.6516 63.2579 55.1798 63.755 55.5526C64.2521 55.9254 64.8424 56.0497 65.526 55.9254C66.9552 55.5526 68.2756 55.0244 69.4874 54.3409C70.6991 53.6573 71.771 52.6942 72.7031 51.4514C73.3245 50.6436 73.6818 49.8047 73.775 48.9348C73.8682 48.0648 73.7905 47.1327 73.5419 46.1385C73.4798 45.8899 73.4021 45.6414 73.3089 45.3928C73.2157 45.1443 73.138 44.8646 73.0759 44.5539C73.3866 44.4296 73.7284 44.3209 74.1012 44.2277C74.474 44.1345 74.8158 44.0257 75.1265 43.9015C76.9907 43.4665 78.8393 43.2956 80.6724 43.3888C82.5056 43.482 84.3231 43.8704 86.1252 44.5539C87.1815 44.9268 88.1136 45.4549 88.9214 46.1385C89.7293 46.822 90.3817 47.692 90.8788 48.7483C91.5002 49.9911 91.6556 51.1873 91.3449 52.3369C91.0342 53.4865 90.2885 54.4652 89.1079 55.273C88.9836 55.3351 88.8593 55.3972 88.735 55.4594C88.6107 55.5215 88.5175 55.5837 88.4554 55.6458C88.3933 55.7079 88.3466 55.7856 88.3156 55.8788C88.2845 55.972 88.269 56.0808 88.269 56.2051C88.269 56.2051 88.3156 56.2361 88.4088 56.2983C88.502 56.3604 88.5797 56.3915 88.6418 56.3915C89.0146 56.3915 89.3719 56.2983 89.7137 56.1119C90.0555 55.9254 90.3817 55.739 90.6924 55.5526C91.4381 54.9933 92.075 54.3564 92.6032 53.6418C93.1314 52.9272 93.4576 52.1039 93.5819 51.1718V51.0786V49.8668C93.5198 49.8047 93.5042 49.7581 93.5353 49.727C93.5664 49.696 93.5819 49.6804 93.5819 49.6804C93.3955 48.3134 92.9605 47.1016 92.277 46.0453C91.5934 44.9889 90.7235 44.0257 89.6671 43.1558C88.4243 42.2237 87.1039 41.5402 85.7057 41.1052C84.3076 40.6702 82.8318 40.4217 81.2783 40.3595C80.0355 40.2974 78.8083 40.3595 77.5965 40.5459C76.3848 40.7324 75.1886 41.0431 74.008 41.478C73.6352 41.6023 73.2934 41.7266 72.9827 41.8509C72.672 41.9751 72.3302 42.1305 71.9574 42.3169C71.9574 42.1926 71.9263 42.0994 71.8642 42.0373C71.802 41.9751 71.771 41.8819 71.771 41.7577C71.3981 41.0741 71.0408 40.3751 70.6991 39.6605C70.3573 38.9458 70.1243 38.1846 70 37.3768C69.9379 36.8176 69.8913 36.2583 69.8602 35.6991C69.8291 35.1398 69.8757 34.5495 70 33.9281C70.1243 33.431 70.2641 32.9028 70.4194 32.3435C70.5748 31.7843 70.7457 31.2561 70.9321 30.759C70.9942 30.4483 70.9942 30.2153 70.9321 30.0599C70.87 29.9046 70.7146 29.7648 70.466 29.6405C70.3418 29.5783 70.233 29.5317 70.1398 29.5007C70.0466 29.4696 69.9379 29.4541 69.8136 29.4541C69.1922 29.3298 68.5553 29.2987 67.9028 29.3609C67.2503 29.423 66.6134 29.5473 65.992 29.7337C65.7435 29.7958 65.557 29.889 65.4328 30.0133C65.3085 30.1376 65.2153 30.324 65.1531 30.5726C65.091 30.6968 65.0444 30.8367 65.0133 30.992C64.9822 31.1474 64.9356 31.2872 64.8735 31.4114C64.6871 31.9707 64.5317 32.5455 64.4075 33.1358C64.2832 33.7261 64.0657 34.3009 63.755 34.8602C63.0715 36.2894 62.3569 37.672 61.6112 39.008C60.8655 40.344 60.1198 41.6644 59.3742 42.9694C59.2499 43.1558 59.1411 43.3111 59.0479 43.4354C58.9547 43.5597 58.8771 43.715 58.8149 43.9015C58.5042 43.3422 58.2246 42.7985 57.976 42.2703C57.7275 41.7421 57.5721 41.1673 57.51 40.5459C57.3857 39.8624 57.308 39.1789 57.277 38.4953C57.2459 37.8118 57.2925 37.1283 57.4168 36.4447C57.5411 35.9476 57.6964 35.4505 57.8828 34.9534C58.0692 34.4563 58.2246 33.9592 58.3489 33.462C58.411 33.2135 58.4265 33.0115 58.3955 32.8562C58.3644 32.7008 58.2246 32.561 57.976 32.4367C57.8518 32.3746 57.743 32.328 57.6498 32.2969C57.5566 32.2659 57.4478 32.2193 57.3236 32.1571C56.64 32.095 55.9565 32.095 55.273 32.1571C54.5894 32.2193 53.937 32.3435 53.3156 32.53C53.1292 32.5921 52.9738 32.6853 52.8495 32.8096C52.7253 32.9339 52.632 33.1203 52.5699 33.3688C52.3835 33.9902 52.1971 34.5961 52.0107 35.1864C51.8242 35.7767 51.6067 36.3826 51.3582 37.004C50.3018 39.3653 49.2455 41.7266 48.1891 44.0879C47.1327 46.4492 46.0763 48.8105 45.02 51.1718C44.8336 51.6689 44.6161 52.1505 44.3675 52.6165C44.119 53.0826 43.8704 53.5641 43.6218 54.0613C43.5597 54.1855 43.482 54.3098 43.3888 54.4341C43.2956 54.5584 43.2179 54.6516 43.1558 54.7137C43.0937 54.6516 43.0471 54.5894 43.016 54.5273C42.9849 54.4652 42.9694 54.4341 42.9694 54.4341C42.9694 54.1234 42.9538 53.8127 42.9228 53.502C42.8917 53.1913 42.9072 52.8806 42.9694 52.5699C43.1558 51.7 43.3422 50.8145 43.5286 49.9134C43.715 49.0124 43.9325 48.1269 44.1811 47.257C44.3675 46.5735 44.5539 45.8589 44.7403 45.1132C44.9268 44.3675 45.1132 43.6529 45.2996 42.9694C45.3617 42.7208 45.3928 42.4878 45.3928 42.2703C45.3928 42.0528 45.2996 41.8509 45.1132 41.6644C44.8025 41.2916 44.3986 41.0741 43.9015 41.012C43.4044 40.9498 42.9694 41.0431 42.5965 41.2916L42.2237 41.478L42.3169 41.012C42.3791 40.4527 42.4101 39.8935 42.4101 39.3342C42.4101 38.775 42.348 38.2157 42.2237 37.6565C42.0373 36.9729 41.7111 36.4603 41.245 36.1185C40.779 35.7767 40.1731 35.6059 39.4274 35.6059C39.1167 35.6059 38.7905 35.6369 38.4487 35.6991C38.107 35.7612 37.7807 35.8544 37.47 35.9787C36.2273 36.4758 35.0932 37.1438 34.0679 37.9827C33.0426 38.8216 32.1261 39.7692 31.3182 40.8256C31.2561 40.9498 31.1784 41.0586 31.0852 41.1518C30.992 41.245 30.8833 41.3227 30.759 41.3848C29.7026 41.9441 28.6307 42.5189 27.5433 43.1092C26.4558 43.6995 25.3529 44.3054 24.2344 44.9268L21.9041 46.2317C21.5313 45.921 21.2051 45.6103 20.9254 45.2996C20.6458 44.9889 20.3196 44.7093 19.9467 44.4607C18.9525 43.5908 17.9427 42.7519 16.9174 41.9441C15.8921 41.1363 14.8513 40.3284 13.7949 39.5206C12.925 38.775 12.055 38.0138 11.1851 37.237C10.3151 36.4603 9.53839 35.6059 8.85486 34.6738C8.35775 33.9281 7.96937 33.1669 7.68975 32.3901C7.41012 31.6134 7.23924 30.759 7.1771 29.8269C7.1771 28.7084 7.31691 27.6365 7.59654 26.6112C7.87617 25.5859 8.29561 24.6072 8.85486 23.6751C9.60053 22.4323 10.4705 21.2983 11.4647 20.273C12.4589 19.2477 13.4842 18.3 14.5406 17.4301C15.7213 16.498 16.933 15.628 18.1758 14.8202C19.4186 14.0124 20.6924 13.2357 21.9973 12.49C23.8615 11.4336 25.7412 10.4705 27.6365 9.60053C29.5317 8.73058 31.4736 8.01598 33.4621 7.45672C35.5126 6.83533 37.5943 6.36928 39.7071 6.05859C41.8198 5.74789 43.9636 5.71682 46.1385 5.96538C47.0084 6.08966 47.8473 6.26054 48.6551 6.47803C49.4629 6.69551 50.2397 6.99068 50.9854 7.36351C51.6067 7.67421 52.1349 8.06258 52.5699 8.52863C53.0049 8.99467 53.3466 9.53839 53.5952 10.1598C53.7816 10.7812 53.8748 11.4181 53.8748 12.0706C53.8748 12.723 53.8127 13.391 53.6884 14.0746C53.3777 15.3795 52.8806 16.5757 52.1971 17.6631C51.5135 18.7506 50.7057 19.7914 49.7736 20.7856C48.2823 22.4012 46.6356 23.7528 44.8336 24.8402C43.0315 25.9277 41.1363 26.8442 39.1478 27.5899C37.9672 27.9627 36.7554 28.2889 35.5126 28.5686C34.2699 28.8482 33.0271 29.0191 31.7843 29.0812C30.7901 29.2055 29.7958 29.2055 28.8016 29.0812C27.8074 28.9569 26.8442 28.7395 25.9121 28.4288C25.2286 28.1802 24.6227 27.8695 24.0945 27.4967C23.5664 27.1238 23.0537 26.6889 22.5566 26.1917C22.4945 26.0675 22.4168 25.9743 22.3236 25.9121C22.2304 25.85 22.0905 25.881 21.9041 26.0053C21.7799 26.0675 21.7022 26.1607 21.6711 26.285C21.64 26.4092 21.6556 26.5335 21.7177 26.6578C21.7799 26.9063 21.8575 27.1549 21.9507 27.4035C22.0439 27.652 22.1527 27.8695 22.277 28.0559C22.5877 28.6152 22.9605 29.0812 23.3955 29.4541C23.8305 29.8269 24.3276 30.1997 24.8868 30.5726C25.8189 31.194 26.8287 31.6289 27.9161 31.8775C29.0036 32.1261 30.1376 32.2814 31.3182 32.3435C33.0581 32.4057 34.767 32.3125 36.4447 32.0639C38.1225 31.8154 39.8003 31.4736 41.478 31.0386C43.8393 30.3551 46.0453 29.4075 48.0959 28.1957C50.1465 26.984 52.0107 25.4771 53.6884 23.6751C55.0555 22.1216 56.2051 20.4594 57.1372 18.6884C58.0692 16.9174 58.6285 14.9756 58.8149 12.8628C58.9392 11.8686 58.9392 10.8744 58.8149 9.88016C58.6906 8.88593 58.3799 7.92277 57.8828 6.99068C57.3857 5.93431 56.7332 5.03329 55.9254 4.28761C55.1176 3.54194 54.2166 2.92055 53.2224 2.42343C51.7932 1.61562 50.3018 1.00977 48.7483 0.605858C47.1949 0.20195 45.6103 0 43.9947 0H40.8256C38.8992 0 36.9885 0.248558 35.0932 0.745667C33.198 1.24278 31.3493 1.80204 29.5473 2.42343C28.1181 2.92055 26.7355 3.46426 25.3995 4.05459C24.0635 4.64491 22.743 5.28185 21.4381 5.96538C18.5797 7.39458 15.83 8.99467 13.1891 10.7656C10.5482 12.5366 8.14026 14.6027 5.96538 16.964C4.84687 18.2068 3.85264 19.4807 2.98269 20.7856C2.11274 22.0905 1.39814 23.5197 0.838881 25.0732C0.714603 25.5082 0.574789 25.9587 0.419441 26.4248C0.264092 26.8908 0.124279 27.3724 0 27.8695V29.1744ZM20.7856 54.7137C20.6613 56.3915 20.2419 57.8984 19.5273 59.2344C18.8127 60.5704 17.834 61.7976 16.5912 62.9161C15.9077 63.5375 15.162 64.0502 14.3542 64.4541C13.5464 64.858 12.6764 65.1531 11.7443 65.3395C11.4336 65.4017 11.1074 65.4172 10.7656 65.3862C10.4239 65.3551 10.0976 65.2774 9.78695 65.1531C9.28984 64.9667 8.9636 64.6871 8.80826 64.3142C8.65291 63.9414 8.57523 63.5375 8.57523 63.1025C8.57523 62.3569 8.68398 61.6733 8.90147 61.0519C9.11895 60.4305 9.38305 59.8091 9.69374 59.1877C10.1287 58.4421 10.6569 57.7585 11.2783 57.1371C11.8997 56.5158 12.5522 55.9254 13.2357 55.3662C14.3542 54.4341 15.4882 53.5952 16.6378 52.8495C17.7874 52.1039 18.9525 51.3893 20.1332 50.7057L20.3196 50.6125C20.506 51.296 20.6458 51.9796 20.739 52.6631C20.8322 53.3466 20.8478 54.0302 20.7856 54.7137ZM39.5206 40.2663C39.4585 40.7634 39.3653 41.2761 39.241 41.8043C39.1167 42.3324 38.9925 42.8762 38.8682 43.4354C38.3089 45.1753 37.7031 46.9152 37.0506 48.6551C36.3981 50.395 35.6991 52.1039 34.9534 53.7816C34.767 54.1545 34.5806 54.4807 34.3941 54.7603C34.2077 55.0399 34.0524 55.3351 33.9281 55.6458C33.866 55.7079 33.8194 55.7545 33.7883 55.7856C33.7572 55.8167 33.7106 55.8322 33.6485 55.8322C33.4621 56.0808 33.2756 56.1895 33.0892 56.1585C32.9028 56.1274 32.7474 55.9876 32.6232 55.739C32.4989 55.4283 32.3901 55.1021 32.2969 54.7603C32.2037 54.4186 32.1261 54.0613 32.0639 53.6884C32.0018 53.4399 31.9707 53.2068 31.9707 52.9893C31.9707 52.7719 31.9707 52.5388 31.9707 52.2903C31.9707 50.6125 32.2193 49.0124 32.7164 47.49C33.2135 45.9676 33.897 44.4918 34.767 43.0626C35.1398 42.4412 35.5282 41.8664 35.9321 41.3382C36.336 40.81 36.8486 40.3595 37.47 39.9867C37.6565 39.9245 37.8429 39.8469 38.0293 39.7537C38.2157 39.6605 38.4332 39.5828 38.6818 39.5206C38.9925 39.3964 39.2255 39.4119 39.3808 39.5672C39.5362 39.7226 39.5828 39.9556 39.5206 40.2663ZM52.3835 56.5779L56.9507 51.1718C57.075 52.166 56.5158 53.3933 55.273 54.8535C54.0302 56.3138 53.067 56.8886 52.3835 56.5779ZM67.0173 52.9427C66.893 53.067 66.7377 53.1602 66.5513 53.2224C66.3649 53.2845 66.1784 53.3466 65.992 53.4088C65.8677 53.5331 65.7745 53.5641 65.7124 53.502C65.6502 53.4399 65.6192 53.3156 65.6192 53.1292C65.6192 53.067 65.6192 52.9893 65.6192 52.8961C65.6192 52.8029 65.6502 52.7253 65.7124 52.6631C66.0231 51.5446 66.4581 50.5193 67.0173 49.5872C67.5766 48.6551 68.2912 47.8162 69.1611 47.0706L69.2543 46.9774C69.6893 48.0959 69.6893 49.2144 69.2543 50.3329C68.8194 51.4514 68.0737 52.3213 67.0173 52.9427Z" fill="#444444"/>
</svg>
