<svg width="105" height="65" viewBox="0 0 105 65" fill="none" xmlns="http://www.w3.org/2000/svg">
<path d="M11.6293 1.98988C10.3042 0.663346 8.70347 0 6.82817 0C4.95303 0 3.34751 0.669536 2.00844 2.00845C0.688102 3.32895 0.018568 4.93447 0.018568 6.80962C0.018568 8.68492 0.688102 10.292 2.00844 11.6108L22.8403 32.4427L2.02701 53.2559C0.688103 54.5948 0.0185673 56.2005 0 58.0756C0.0185673 59.9508 0.688102 61.5579 2.00844 62.8768C3.34751 64.1972 4.95303 64.8667 6.8096 64.8853C8.70346 64.8853 10.3104 64.2157 11.6495 62.8768L34.7951 39.7125C39.6536 34.8727 39.6536 30.0142 34.7951 25.1542L11.6293 1.98988ZM102.36 53.293C101.021 51.9541 99.3951 51.2846 97.5012 51.2846V51.2754H52.8156V51.2846C50.9219 51.2846 49.3132 51.9541 47.9757 53.293C46.6368 54.6321 45.9673 56.2392 45.9673 58.1329C45.9673 60.0268 46.6368 61.6525 47.9757 62.9916C49.3148 64.3305 50.9203 65 52.8156 65V64.9906H97.4998V65C99.3935 65 101.018 64.3305 102.358 62.9916C103.697 61.6525 104.367 60.0268 104.367 58.1329C104.367 56.2392 103.697 54.6321 102.358 53.293H102.36Z" fill="#444444"/>
</svg>
