<?xml version="1.0" encoding="UTF-8" standalone="no"?>
<!DOCTYPE svg PUBLIC "-//W3C//DTD SVG 1.1//EN" "http://www.w3.org/Graphics/SVG/1.1/DTD/svg11.dtd">
<svg width="100%" height="100%" viewBox="0 0 70 70" version="1.1" xmlns="http://www.w3.org/2000/svg" xmlns:xlink="http://www.w3.org/1999/xlink" xml:space="preserve" xmlns:serif="http://www.serif.com/" style="fill-rule:evenodd;clip-rule:evenodd;stroke-linejoin:round;stroke-miterlimit:2;">
    <g id="Artboard1" transform="matrix(0.8649,0,0,0.9343,-0.0761461,0.0628641)">
        <rect x="0.088" y="-0.067" width="80.934" height="74.922" style="fill:none;"/>
        <clipPath id="_clip1">
            <rect x="0.088" y="-0.067" width="80.934" height="74.922"/>
        </clipPath>
        <g clip-path="url(#_clip1)">
            <g transform="matrix(0.0323737,0,0,0.029969,0.0880404,-0.0672847)">
                <path d="M0,2500L0,0L2500,0L2500,2500L0,2500ZM2008.75,1150L2010,1148.75C1966.88,1137.5 1863.75,1133.75 1820,1142.5C1685,1167.5 1590.62,1255 1563.75,1380C1555,1415.62 1558.12,1504.38 1567.5,1540.62C1580,1582.5 1606.88,1633.12 1636.25,1665.62C1687.5,1719.38 1742.5,1754.38 1871.88,1809.38C1984.38,1859.38 2024.38,1881.88 2044.38,1909.38C2058.75,1931.25 2063.12,1944.38 2063.12,1973.12C2063.12,2004.38 2053.12,2026.88 2030,2048.12C1976.25,2096.88 1867.5,2102.5 1786.25,2060.62C1759.38,2045.62 1713.12,2001.88 1692.5,1969.38L1676.25,1947.5L1605.62,1988.75L1511.88,2043.12L1488.12,2058.12C1485.62,2062.5 1530,2129.38 1553.12,2154.38C1611.88,2218.75 1707.5,2268.75 1807.5,2287.5C1854.38,2295.62 1954.38,2296.88 1998.12,2289.38C2137.5,2266.25 2235,2195.62 2275,2091.25C2310.62,1995.62 2298.75,1868.12 2245.62,1786.88C2198.75,1714.38 2121.25,1663.75 1942.5,1586.88C1845.62,1544.38 1814.38,1523.75 1797.5,1489.38C1790,1473.12 1786.25,1461.88 1786.25,1441.88C1786.25,1376.25 1836.25,1336.88 1911.25,1341.88C1963.12,1345.62 1996.25,1365.62 2028.75,1411.88C2038.75,1428.12 2048.75,1438.75 2051.25,1436.88C2116.88,1396.25 2225,1323.12 2225,1319.38C2222.5,1308.12 2188.12,1264.38 2165,1239.38C2121.25,1193.75 2072.5,1165 2008.75,1150ZM548.125,1254.38L548.125,1356.25L873.125,1356.25L873.125,2281.25L1103.75,2281.25L1103.75,1356.25L1428.75,1356.25L1428.75,1256.25C1428.75,1200 1428.75,1154.38 1426.25,1153.12C1426.25,1151.25 1228.12,1150.62 987.5,1150.62L550,1152.5L550,1255L548.125,1254.38Z" style="fill:rgb(68,68,68);"/>
            </g>
        </g>
    </g>
</svg>
