<svg width="32" height="30" viewBox="0 0 32 30" fill="none" xmlns="http://www.w3.org/2000/svg">
<path fill-rule="evenodd" clip-rule="evenodd" d="M15.5875 0C6.96801 0 0 6.87497 0 15.3802C0 22.179 4.46464 27.9339 10.6583 29.9708C11.4326 30.1239 11.7163 29.6399 11.7163 29.2327C11.7163 28.8761 11.6908 27.6539 11.6908 26.3805C7.35471 27.2974 6.45176 24.5471 6.45176 24.5471C5.75493 22.7646 4.72244 22.3065 4.72244 22.3065C3.30325 21.3643 4.82582 21.3643 4.82582 21.3643C6.40007 21.4662 7.22613 22.943 7.22613 22.943C8.61947 25.2855 10.8647 24.6236 11.768 24.2162C11.8969 23.223 12.3101 22.5355 12.7488 22.1537C9.29046 21.7971 5.65187 20.473 5.65187 14.5653C5.65187 12.8846 6.27085 11.5096 7.25165 10.4403C7.09691 10.0584 6.55482 8.47934 7.40672 6.36591C7.40672 6.36591 8.72285 5.95841 11.6904 7.94465C12.961 7.60799 14.2713 7.43672 15.5875 7.43528C16.9036 7.43528 18.2453 7.61372 19.4842 7.94465C22.4521 5.95841 23.7682 6.36591 23.7682 6.36591C24.6201 8.47934 24.0777 10.0584 23.923 10.4403C24.9296 11.5096 25.5231 12.8846 25.5231 14.5653C25.5231 20.473 21.8845 21.7715 18.4003 22.1537C18.9683 22.6374 19.4583 23.554 19.4583 25.0055C19.4583 27.068 19.4328 28.7233 19.4328 29.2324C19.4328 29.6399 19.7168 30.1239 20.4908 29.9711C26.6845 27.9336 31.1491 22.179 31.1491 15.3802C31.1746 6.87497 24.1811 0 15.5875 0Z" fill="#444444"/>
</svg>
