<svg width="48" height="48" viewBox="0 0 48 48" fill="none" xmlns="http://www.w3.org/2000/svg">
<path d="M0.5 24C0.5 11.0213 11.0213 0.5 24 0.5C36.9787 0.5 47.5 11.0213 47.5 24C47.5 36.9787 36.9787 47.5 24 47.5C11.0213 47.5 0.5 36.9787 0.5 24Z" stroke="black"/>
<path fill-rule="evenodd" clip-rule="evenodd" d="M26.3131 15.313C26.5084 15.1177 26.825 15.1177 27.0202 15.313L35.3536 23.6463C35.5488 23.8416 35.5488 24.1582 35.3536 24.3534L27.0202 32.6868C26.825 32.882 26.5084 32.882 26.3131 32.6868C26.1179 32.4915 26.1179 32.1749 26.3131 31.9797L33.7929 24.4999H13C12.7239 24.4999 12.5 24.276 12.5 23.9999C12.5 23.7237 12.7239 23.4999 13 23.4999H33.7929L26.3131 16.0201C26.1179 15.8248 26.1179 15.5083 26.3131 15.313Z" fill="black"/>
</svg>
