<svg width="31" height="30" viewBox="0 0 31 30" fill="none" xmlns="http://www.w3.org/2000/svg">
<path d="M11.1992 13.5437H8.74292V11.22H10.9717C13.3192 11.22 13.0292 13.5437 11.1992 13.5437ZM18.4354 14.8662H21.7154C21.5717 12.7575 18.7654 12.6037 18.4354 14.8662ZM11.0604 15.3612H8.74292V17.795H11.0229C13.2504 17.7938 13.1142 15.3612 11.0604 15.3612ZM30.1492 15C30.1492 23.2838 23.4329 30 15.1492 30C6.86542 30 0.14917 23.2838 0.14917 15C0.14917 6.71625 6.86542 0 15.1492 0C23.4329 0 30.1492 6.71625 30.1492 15ZM13.4529 14.0837C15.5379 13.0175 15.4617 9.1075 11.4692 9.04875H6.39917V19.9613H11.1129C16.0604 19.9613 15.9767 15.0025 13.4529 14.0837ZM17.6492 10.1262H22.6492V9.0325H17.6492V10.1262ZM23.8279 14.7425C23.1467 10.3612 16.2617 10.1038 16.2617 15.8325C16.2617 21.49 22.7367 20.605 23.6979 17.7825H21.3879C20.5817 18.7175 18.2529 18.4462 18.3829 16.3025H23.8954C23.9067 15.6087 23.8842 15.1112 23.8279 14.7425Z" fill="#444444"/>
</svg>
