<svg width="30" height="30" viewBox="0 0 30 30" fill="none" xmlns="http://www.w3.org/2000/svg">
<path fill-rule="evenodd" clip-rule="evenodd" d="M2.5 0C1.11928 0 0 1.11928 0 2.5V27.5C0 28.8807 1.11928 30 2.5 30H27.5C28.8807 30 30 28.8807 30 27.5V2.5C30 1.11928 28.8807 0 27.5 0H2.5ZM9.20127 6.6712C9.21065 8.26495 8.01768 9.24698 6.60205 9.23995C5.26845 9.23292 4.10595 8.1712 4.11298 6.67355C4.12002 5.26495 5.2333 4.13292 6.6794 4.16573C8.14658 4.19855 9.21065 5.27433 9.20127 6.6712ZM15.4662 11.2696H11.2662H11.2638V25.536H15.7028V25.2032C15.7028 24.57 15.7023 23.9367 15.7018 23.3032C15.7005 21.6135 15.699 19.922 15.7077 18.2328C15.71 17.8227 15.7287 17.3962 15.8342 17.0047C16.2302 15.5422 17.5452 14.5977 19.0123 14.8298C19.9545 14.9773 20.5778 15.5235 20.8403 16.4118C21.0022 16.9672 21.0748 17.5648 21.0818 18.1438C21.1008 19.8898 21.0982 21.6358 21.0955 23.382C21.0945 23.9983 21.0935 24.615 21.0935 25.2313V25.5337H25.5467V25.1915C25.5467 24.4382 25.5463 23.685 25.5458 22.9318C25.545 21.0493 25.544 19.1668 25.549 17.2837C25.5513 16.4328 25.46 15.5938 25.2513 14.7712C24.9397 13.5477 24.2952 12.5352 23.2475 11.804C22.5045 11.2837 21.6888 10.9485 20.7772 10.911C20.6733 10.9067 20.5687 10.901 20.4635 10.8954C19.9973 10.8702 19.5235 10.8446 19.0778 10.9344C17.8028 11.1899 16.6827 11.7735 15.8365 12.8023C15.7382 12.9203 15.642 13.0402 15.4985 13.219L15.4662 13.2595V11.2696ZM4.4694 25.5407H8.88737V11.2789H4.4694V25.5407Z" fill="#444444"/>
</svg>
